<svg xmlns="http://www.w3.org/2000/svg" xmlns:xlink="http://www.w3.org/1999/xlink" width="330.431" height="255" viewBox="0 0 330.431 255"><defs><style>.a{fill:#601ed9;}.b,.l{fill:#b48bff;}.b,.k,.m{opacity:0.1;}.c,.i{fill:#6c63ff;}.d,.q{opacity:0.25;}.e{fill:url(#a);}.f{fill:#f6f7f9;}.g{fill:#270c59;}.h,.i{opacity:0.2;}.j{fill:#31d0e9;}.n{fill:none;stroke:#6c63ff;stroke-miterlimit:10;}.o{fill:url(#b);}.p{fill:#a0616a;}.q,.w{fill:#fff;}.r{fill:#a47ee8;}.s{fill:#464353;}.t{fill:#2f2e41;}.u{fill:#9f9eff;}.v{fill:#9258fe;}</style><linearGradient id="a" x1="0.5" y1="1" x2="0.5" gradientUnits="objectBoundingBox"><stop offset="0" stop-color="gray" stop-opacity="0.251"/><stop offset="0.54" stop-color="gray" stop-opacity="0.122"/><stop offset="1" stop-color="gray" stop-opacity="0.102"/></linearGradient><linearGradient id="b" y1="1" y2="-0.001" xlink:href="#a"/></defs><g transform="translate(-42 -243)"><path class="a" d="M-3372.483-3849.767a81.294,81.294,0,0,1-35.849-8.225,31.883,31.883,0,0,1-9.5-6.9c-2.853-3.2-4.113-6.591-3.744-10.067.784-7.376,8.345-11.478,15.017-15.1l.054-.03q.635-.344,1.257-.684c6.507-3.561,17.549-11.278,18.4-22.953.688-9.425-5.825-19.229-17.421-26.225-3.406-2.055-7.049-3.864-10.572-5.613l-.008,0c-6.257-3.106-12.727-6.318-18.033-11a35.792,35.792,0,0,1-5.475-6.1l47.6-17.981-52.216,9.343a44.21,44.21,0,0,1-2.792-18.848l66.779-24.657-63.94,11.97a36.768,36.768,0,0,1,7.663-12.046,46.282,46.282,0,0,1,19.625-11.807,77.458,77.458,0,0,1,23.474-3.312,112.717,112.717,0,0,1,11.537.614,159.891,159.891,0,0,1,39.748,9.36c6.069,2.284,12.1,4.981,17.927,7.59,8.8,3.939,17.9,8.011,27.31,10.733a77.437,77.437,0,0,0,21.439,3.22c9.955,0,18.637-2.3,25.806-6.833l-3.784,2.889a85.532,85.532,0,0,1,48.471-15.174,81.393,81.393,0,0,1,12.169.911,82.6,82.6,0,0,1,23.139,7.142,85.847,85.847,0,0,1,20.188,13.4l-33.3,13.441,41.724-4.778a81.079,81.079,0,0,1,6.02,8.143c5.085,7.874,7.934,15.5,8.467,22.66l-30.881,24.965,30-14.65a82.4,82.4,0,0,1-3.67,10.863c-1.532,3.895-2.713,7.807-3.855,11.59a124.451,124.451,0,0,1-4.715,13.649,83.131,83.131,0,0,1-14.748,22.245,44.494,44.494,0,0,1-7.99,6.755l-23.33-48.6,14.892,53.241a94.234,94.234,0,0,1-14.666,5.092,152.831,152.831,0,0,1-39.293,5.141,153.252,153.252,0,0,1-19.614-1.265c-5.564-.724-11.282-1.768-16.812-2.778H-3260c-10.307-1.882-20.964-3.827-31.218-3.827a59.615,59.615,0,0,0-21.221,3.531,98.18,98.18,0,0,0-14.811,7.561c-2.856,1.668-5.809,3.393-8.807,4.9A81.3,81.3,0,0,1-3372.483-3849.767Z" transform="translate(3497.736 4289.427)"/><ellipse class="b" cx="44.177" cy="8.637" rx="44.177" ry="8.637" transform="translate(42 480.725)"/><ellipse class="b" cx="92.604" cy="8.637" rx="92.604" ry="8.637" transform="translate(124.811 462.685)"/><path class="c" d="M825.955,490.215c.413,3.079,7.186,11.251,7.186,11.251s4.371-9.669,3.958-12.748a5.622,5.622,0,0,0-11.143,1.5Z" transform="translate(-545.126 -102.328)"/><path class="d" d="M825.955,490.215c.413,3.079,7.186,11.251,7.186,11.251s4.371-9.669,3.958-12.748a5.622,5.622,0,0,0-11.143,1.5Z" transform="translate(-545.126 -102.328)"/><path class="c" d="M834.319,416.087c2.05,2.33,12.214,5.386,12.214,5.386s-1.718-10.473-3.765-12.806a5.627,5.627,0,1,0-8.462,7.42Z" transform="translate(-549.852 -50.324)"/><path class="c" d="M799.165,489.358c1.627,2.646,11.127,7.375,11.127,7.375s.078-10.613-1.546-13.259a5.622,5.622,0,1,0-9.581,5.884Z" transform="translate(-526.528 -100.27)"/><path class="e" d="M281.84,0V229.592H446.973V0Z" transform="translate(-148.115 243)"/><rect class="f" width="162.237" height="8.751" transform="translate(135.173 245.015)"/><g transform="translate(135.173 245.015)"><rect class="g" width="162.237" height="8.751"/></g><rect class="f" width="162.237" height="216.812" transform="translate(135.173 253.766)"/><circle class="f" cx="1.484" cy="1.484" r="1.484" transform="translate(137.956 247.905)"/><circle class="f" cx="1.484" cy="1.484" r="1.484" transform="translate(141.979 247.905)"/><circle class="f" cx="1.484" cy="1.484" r="1.484" transform="translate(146.001 247.905)"/><g class="h" transform="translate(164.129 267.132)"><rect class="a" width="104.323" height="4.084"/></g><rect class="a" width="13.861" height="4.084" transform="translate(254.591 267.132)"/><g class="h" transform="translate(149.178 350.6)"><rect class="i" width="65.65" height="47.024"/></g><g class="h" transform="translate(149.178 289.601)"><rect class="i" width="65.65" height="47.024"/></g><g class="h" transform="translate(149.178 410.805)"><rect class="i" width="65.65" height="47.024"/></g><g class="h" transform="translate(217.756 350.6)"><rect class="i" width="65.65" height="47.024"/></g><g class="h" transform="translate(217.756 289.601)"><rect class="i" width="65.65" height="47.024"/></g><g class="h" transform="translate(217.756 410.805)"><rect class="i" width="65.65" height="47.024"/></g><path class="j" d="M683.763,226.093s-.6-1.487,3.42-1.116,15.547,1.653,20.533.53,7.957-1.481,7.661,0-8.628,4.826-8.628,4.826L695.96,231.45,688,230.184l-4.273-2.529Z" transform="translate(-449.223 72.595)"/><path class="j" d="M709.528,255.238a46.569,46.569,0,0,0-19.143,8.478,3.551,3.551,0,0,0-1.526-1.813,5.359,5.359,0,0,0-1.549-.651,1.56,1.56,0,0,0-1.416.612,8.014,8.014,0,0,0-1.26,1.865c-7.586-5.207-19.094-8.53-19.094-8.53v-1.041a5.76,5.76,0,0,1,.075-.732c.039-.28.088-.527.15-.83.976-4.966,4.836-16.315,4.836-16.315h4.364l8.462,1.757,9.519-.583,9.588-1.995,1.243-.26c2.073,1.627,4.426,13.018,5.35,17.867.117.615.208,1.123.277,1.5C709.486,254.987,709.528,255.238,709.528,255.238Z" transform="translate(-436.953 65.395)"/><path class="c" d="M667.129,255.306c.251-4.768,4.039-15.1,4.68-16.816h-1.194s-4.088,12.042-4.918,16.741a.114.114,0,0,0,0,.036c-.023.127-.046.251-.062.368-.039.28-.065.527-.075.732v1.041s11.508,3.326,19.094,8.53a8.017,8.017,0,0,1,1.26-1.865C683.014,261.438,672.017,257.142,667.129,255.306Z" transform="translate(-436.967 63.176)"/><path class="c" d="M757.749,254.524c-.029-.166-.065-.358-.1-.57-.049-.273-.107-.583-.173-.928h0c-.924-4.856-3.277-16.25-5.35-17.867l-1.243.26c.755,2.028,5.621,15.267,5.207,17.851-8.136,1.627-16.383,6.916-18.876,8.6a3.551,3.551,0,0,1,1.526,1.813,46.568,46.568,0,0,1,19.143-8.478S757.831,254.96,757.749,254.524Z" transform="translate(-485.298 65.422)"/><path class="k" d="M668.049,254.393c.247-4.768,4.039-15.1,4.68-16.813h-1.2s-4.088,12.042-4.918,16.738v.036q-.036.2-.059.371c-.039.28-.065.527-.075.732V256.5s11.5,3.323,19.094,8.53a7.88,7.88,0,0,1,1.256-1.865C683.931,260.534,672.937,256.228,668.049,254.393Z" transform="translate(-437.587 63.79)"/><path class="j" d="M667.129,255.306c.251-4.768,4.039-15.1,4.68-16.816h-1.194s-4.088,12.042-4.918,16.741a.114.114,0,0,0,0,.036c-.023.127-.046.251-.062.368-.039.28-.065.527-.075.732v1.041s11.508,3.326,19.094,8.53a8.017,8.017,0,0,1,1.26-1.865C683.014,261.438,672.017,257.142,667.129,255.306Z" transform="translate(-436.967 63.176)"/><path class="k" d="M756.846,253.6l-.1-.57c-.052-.273-.107-.579-.172-.928h0c-.921-4.852-3.277-16.246-5.35-17.867l-1.24.264c.755,2.028,5.621,15.267,5.207,17.851-8.136,1.627-16.386,6.916-18.876,8.6a3.557,3.557,0,0,1,1.526,1.816,46.519,46.519,0,0,1,19.14-8.481S756.927,254.047,756.846,253.6Z" transform="translate(-484.69 66.043)"/><path class="j" d="M757.749,254.524c-.029-.166-.065-.358-.1-.57-.049-.273-.107-.583-.173-.928h0c-.924-4.856-3.277-16.25-5.35-17.867l-1.243.26c.755,2.028,5.621,15.267,5.207,17.851-8.136,1.627-16.383,6.916-18.876,8.6a3.551,3.551,0,0,1,1.526,1.813,46.568,46.568,0,0,1,19.143-8.478S757.831,254.96,757.749,254.524Z" transform="translate(-485.298 65.422)"/><path class="k" d="M678.031,252s7.55,4.752,9.314-2.207l1.679.449s.553,7.71-11.495,3.31Z" transform="translate(-445.041 55.553)"/><path class="j" d="M678.031,250.167s7.55,4.752,9.314-2.207l1.679.449s.553,7.71-11.495,3.31Z" transform="translate(-445.041 56.788)"/><path class="k" d="M752.07,249.853s.976,5.686,11.322,2.929l-.365-1.074s-7.065,2.929-9.627-2.158Z" transform="translate(-495.321 55.715)"/><path class="j" d="M752.07,248.023s.976,5.686,11.322,2.929l-.365-1.074s-7.065,2.929-9.627-2.158Z" transform="translate(-495.321 56.95)"/><path class="k" d="M730.91,247.862v11.866h1.836s2.539-.914,2.48-6.249a34.419,34.419,0,0,0-.446-6.769Z" transform="translate(-481.048 57.631)"/><path class="j" d="M730,246.952v11.866h1.836s2.539-.914,2.48-6.249a34.125,34.125,0,0,0-.449-6.769Z" transform="translate(-480.435 58.245)"/><path class="k" d="M714.284,231.044c-.749,1.393-7.544,3.681-8.745,4.075l-.182.059s-.43.111-1.149.26c-2.187.456-7.062,1.3-10.74.56-.534-.1-1.087-.218-1.65-.325l-1.3-.283c-4.231-.941-8.608-2.171-9.386-3.255,0,0,.212-3.538.924-3.443s8.67,3.443,8.67,3.443l.114.016c.205.026.67.085,1.325.159,2.584.283,8.029.732,10.958-.052.14-.039.27-.078.4-.124.221-.075.452-.153.69-.241,3.769-1.334,9.412-3.723,9.412-3.723S715.11,229.511,714.284,231.044Z" transform="translate(-447.469 70.137)"/><path class="k" d="M715.409,226.218c-.3,1.481-8.628,4.826-8.628,4.826l-10.789,1.116-7.957-1.263-4.27-2.529.029-1.562a.651.651,0,0,1,.228-.719c1.416.43,8.462,3.394,8.462,3.394l.114.016c.205.026.67.085,1.325.159,2.584.283,8.029.732,10.958-.052.14-.039.27-.078.4-.124.221-.072.452-.153.69-.241,3.407-1.207,8.351-3.277,9.266-3.661A.651.651,0,0,1,715.409,226.218Z" transform="translate(-449.246 71.884)"/><path class="j" d="M714.284,229.2c-.749,1.393-7.544,3.678-8.745,4.071l-.182.062s-.43.107-1.149.257c-2.187.456-7.062,1.3-10.74.56-.534-.1-1.087-.218-1.65-.325l-1.3-.283c-4.231-.941-8.608-2.171-9.386-3.254,0,0,.212-3.538.924-3.44s8.67,3.44,8.67,3.44l.114.016c.205.026.67.088,1.325.159,2.584.283,8.029.732,10.958-.052.14-.039.27-.078.4-.124.221-.072.452-.153.69-.241,3.769-1.334,9.412-3.723,9.412-3.723S715.11,227.671,714.284,229.2Z" transform="translate(-447.469 71.385)"/><circle class="k" cx="1.191" cy="1.191" r="1.191" transform="translate(249.959 303.15)"/><circle class="j" cx="1.191" cy="1.191" r="1.191" transform="translate(249.959 302.85)"/><path class="k" d="M712.527,238.669l-.326,3.359-1.3-.283.325-3.235C711.408,238.543,711.876,238.6,712.527,238.669Z" transform="translate(-467.551 63.162)"/><path class="j" d="M711.627,238.669l-.325,3.359-1.3-.283.325-3.235C710.5,238.543,710.976,238.6,711.627,238.669Z" transform="translate(-466.943 63.162)"/><path class="k" d="M750.181,240.972l-.182.062s-.426.107-1.149.257l-1.11-3.186c.14-.039.273-.078.4-.124.221-.072.452-.153.69-.241Z" transform="translate(-492.4 63.682)"/><path class="j" d="M751.1,240.972l-.182.062s-.43.107-1.149.257l-1.11-3.186c.14-.039.27-.078.4-.124.221-.072.452-.153.69-.241Z" transform="translate(-493.021 63.682)"/><path class="l" d="M497.4,219.826a8.592,8.592,0,0,1,4.325,1.2,24.249,24.249,0,0,0,6.125,0c2.161-.482,3.254-2.161,3.665-1.683s.42,4.986.42,4.986l-1.862,4.986-4.2,3.121-6.665-1.92L497,224.877Z" transform="translate(-323.265 76.148)"/><path class="k" d="M511.938,224.425l-1.862,4.986-4.2,3.121-6.665-1.92L497,224.965l.42-5.044h.1c.371,1.591,1.953,6.616,6.991,6.971,5.181.361,6.652-5.8,6.958-7.5a.2.2,0,0,1,.068.052C511.938,219.914,511.938,224.425,511.938,224.425Z" transform="translate(-323.265 76.06)"/><path class="l" d="M471.943,220s1.08,7.026,7.088,7.446,7.026-7.928,7.026-7.928,8.709,2.854,10.74,7.944,3.544,9.174,3.544,9.174-.651,1.139-1.383,1.26-5.705,3.544-5.705,3.544-.059,9.731.482,10.33.361,3.183-1.263,3.063-12.852-2.643-22.456-.54c0,0-4.023,1.442-3.905-.9s.3-11.531.3-11.531-6.066-2.643-6.424-2.643-1.263-.475-.3-2.041,2.164-6.906,2.164-6.906S464.256,222.605,471.943,220Z" transform="translate(-297.804 75.972)"/><path class="k" d="M555.63,259.77s1.8,1.321,1.383,2.343S555.63,259.77,555.63,259.77Z" transform="translate(-362.813 48.821)"/><path class="k" d="M563.489,263.67a3.256,3.256,0,0,0,0,1.793" transform="translate(-368.029 46.19)"/><path class="k" d="M566.448,273.8s.241,1.627-.478,1.8" transform="translate(-369.788 39.357)"/><path class="k" d="M487.055,258.48s-3.362,2.929-2.223,4.084" transform="translate(-314.897 49.691)"/><path class="k" d="M485.689,280.26s-.055,3.063.872,3.3" transform="translate(-315.634 35)"/><path class="k" d="M515.4,308.7s2.278-1.559,2.883-1.5" transform="translate(-335.676 16.831)"/><path class="k" d="M522.4,313.415s2.467-1.744,3.128-1.627" transform="translate(-340.397 13.736)"/><path class="l" d="M687,402.65s19.651.931,29.421.358l-.215,2.578-17.288,2.278-5.116-1.575Z" transform="translate(-451.429 -47.558)"/><path class="l" d="M710.352,439.66c-3.795,2.278-16.966.072-16.966.072l-3.651-13.018-4.081,13.243c-5.8,2.076-17.753-.931-17.753-.931l4.654-28.64.8-3.948.758-3.788,7.375,2.22s2.216,1.5,11.453,1.074,10.593-2.929,10.593-2.929c.407.117.794,1.552,1.185,3.336.566,2.6,1.142,5.943,1.823,7.046C707.7,415.251,710.352,439.66,710.352,439.66Z" transform="translate(-438.545 -47.558)"/><path class="k" d="M716.047,407.224a33.815,33.815,0,0,1-15.322,4.4c-1.754.215-16.055-4.306-16.055-4.306l.758-3.785,7.375,2.22s2.216,1.5,11.453,1.074,10.593-2.929,10.593-2.929C715.269,404.008,715.656,405.44,716.047,407.224Z" transform="translate(-449.857 -48.152)"/><path class="k" d="M716.434,403.008l-.215,2.578-17.285,2.278-5.119-1.575L687,402.65s.4.023,1.123.052h0l6.249,1.881s2.216,1.5,11.453,1.074c7.254-.325,9.65-1.953,10.343-2.633Z" transform="translate(-451.429 -47.558)"/><path class="l" d="M716.047,406.344a33.814,33.814,0,0,1-15.322,4.4c-1.754.215-16.055-4.306-16.055-4.306l.758-3.785,7.375,2.22s2.216,1.5,11.453,1.074,10.593-2.929,10.593-2.929C715.269,403.125,715.656,404.56,716.047,406.344Z" transform="translate(-449.857 -47.558)"/><path class="k" d="M679.23,463.58s1.325,3.938,2.255,3.866S679.23,463.58,679.23,463.58Z" transform="translate(-446.188 -88.659)"/><path class="k" d="M676.59,475.46s.823,2.363,1.683,2.757" transform="translate(-444.406 -96.672)"/><path class="k" d="M676.59,483.05a10.393,10.393,0,0,0,2.073,2.041" transform="translate(-444.406 -101.792)"/><path class="k" d="M784,437.3s1.217,1.826,0,2.22" transform="translate(-516.86 -70.932)"/><path class="k" d="M784.028,445.562c-1.413-1.676-.54,2.278-.54,2.278S784.389,445.991,784.028,445.562Z" transform="translate(-516.335 -76.225)"/><path class="k" d="M784.211,452.69s-2.148,3.186-1.718,3.544" transform="translate(-515.805 -81.313)"/><path class="k" d="M689.113,428.5a15.672,15.672,0,0,1-5.533-1.263l.117-.264c.052.026,5.308,2.307,8.153.6a4.047,4.047,0,0,0,1.793-3.417l.286.023A4.32,4.32,0,0,1,692,427.811,5.533,5.533,0,0,1,689.113,428.5Z" transform="translate(-449.122 -62.061)"/><path class="l" d="M689.113,427.618a15.672,15.672,0,0,1-5.533-1.263l.117-.26c.052.023,5.308,2.3,8.153.592a4.047,4.047,0,0,0,1.793-3.417l.286.023A4.32,4.32,0,0,1,692,426.931,5.533,5.533,0,0,1,689.113,427.618Z" transform="translate(-449.122 -61.468)"/><path class="k" d="M757.779,429.65a4.455,4.455,0,0,1-1.953-.42,5.01,5.01,0,0,1-2.5-3.655l.286-.036a4.776,4.776,0,0,0,2.337,3.434c1.777.856,4.3.325,7.485-1.627l.146.244A11.832,11.832,0,0,1,757.779,429.65Z" transform="translate(-496.172 -62.999)"/><path class="l" d="M757.779,428.77a4.454,4.454,0,0,1-1.953-.42,5.01,5.01,0,0,1-2.5-3.655l.286-.036a4.776,4.776,0,0,0,2.337,3.434c1.777.856,4.3.325,7.485-1.627l.146.244A11.832,11.832,0,0,1,757.779,428.77Z" transform="translate(-496.172 -62.405)"/><path class="j" d="M503.34,404s3.694,5.158,6.2,4.657,2.757-1.051,4.986-4.657l1.829,4.208-2.154,5.207-2.551,3.3-5.409-.849-1.751-5.91Z" transform="translate(-327.541 -48.469)"/><path class="k" d="M516.358,408.2l-2.154,5.207-2.551,3.3-5.409-.849-1.751-5.91L503.34,404s.325.449.833,1.067c.807,2.6,2.542,6.779,5.37,6.743,3.193-.036,4.481-5.324,4.9-7.664l.088-.146Z" transform="translate(-327.541 -48.469)"/><path class="j" d="M492,402.158s-1.253-.15-.6,1.4,1.852,6.659,1.253,7.71-.3,3.905-2.9,4.459l.749,2.952s.15,6.509-.15,7.463a39.557,39.557,0,0,0-.251,6.756c.1.55.052,4.156-.348,4.309a1.376,1.376,0,0,0,.651,2.2c1.3.3,6.857.452,7.86.752s8.11,0,8.11,0,3-.4,3.756-.651.9-.849.651-2-1.4-9.513-1.152-10.564.3-11.316.3-11.316a2.883,2.883,0,0,1-1.953-2.555c0-1.9-.752-7.01.8-10.213,0,0-1.253-.859-1.451-.706a8.055,8.055,0,0,1-2.089-.4s-.976,8.712-5.061,8.761-5.9-8.761-5.9-8.761S494.309,400.958,492,402.158Z" transform="translate(-318.158 -46.78)"/><path class="k" d="M515.49,489.38s.843,2.054,2.249,2.353S515.49,489.38,515.49,489.38Z" transform="translate(-335.736 -106.062)"/><path class="k" d="M511.49,494.3s2.721,2.2,2.6,2.656" transform="translate(-333.038 -109.381)"/><path class="k" d="M494.72,454.3s2.154,1.452,2.154,2.5" transform="translate(-321.727 -82.399)"/><path class="k" d="M497.109,463.011a11.731,11.731,0,0,0-1-2.552" transform="translate(-322.664 -86.554)"/><path class="k" d="M496.11,470.76a18.746,18.746,0,0,1,1,2.3" transform="translate(-322.664 -93.502)"/><path class="k" d="M544.473,459.53s-2.8.853-2.555,1.9" transform="translate(-353.554 -85.927)"/><path class="k" d="M541.91,480.762s3.671-4.257,2.568-4.156S541.91,480.762,541.91,480.762Z" transform="translate(-353.559 -97.444)"/><g class="m" transform="translate(171.267 354.716)"><path d="M546.036,428.4c0-.879-.159-2.441-.179-4.182-.02,2,.179,3.847.179,4.833a2.867,2.867,0,0,0,1.953,2.552v-.651A2.877,2.877,0,0,1,546.036,428.4Z" transform="translate(-527.487 -416.825)"/><path d="M552.545,492.713a5.031,5.031,0,0,1,.088.517,3.253,3.253,0,0,0-.088-1.168c-.215-.976-1.087-7.245-1.178-9.692A92.842,92.842,0,0,0,552.545,492.713Z" transform="translate(-531.2 -456.05)"/><path d="M491.348,474.921a29.231,29.231,0,0,1,.3-4.882,28.306,28.306,0,0,0,.189-4.42,22.483,22.483,0,0,1-.189,3.769A34.945,34.945,0,0,0,491.348,474.921Z" transform="translate(-490.718 -444.751)"/><path d="M495.746,402.809c2.3-1.2,2.252-.4,2.252-.4s1.8,8.813,5.9,8.761,5.077-8.761,5.077-8.761a8.161,8.161,0,0,0,2.1.4c.2-.153.866.325,1.233.56.068-.172.14-.342.221-.5,0,0-1.253-.859-1.455-.706a8.135,8.135,0,0,1-2.1-.4s-.976,8.712-5.061,8.761-5.9-8.761-5.9-8.761.049-.8-2.252.4c0,0-1.019-.117-.736,1.006C495.19,402.744,495.746,402.809,495.746,402.809Z" transform="translate(-493.167 -401.497)"/><path d="M489.738,505.81c.325-.12.413-2.35.394-3.58-.016,1.237-.13,2.828-.394,2.929s-.391.651-.29,1.181C489.5,506.06,489.6,505.855,489.738,505.81Z" transform="translate(-489.414 -469.446)"/><path d="M493.316,430.758a2.8,2.8,0,0,0,.153-1.338,1.716,1.716,0,0,1-.153.687c-.6,1.051-.3,3.905-2.906,4.459l.156.612C493,434.546,492.727,431.789,493.316,430.758Z" transform="translate(-490.086 -420.332)"/></g><path class="j" d="M515.348,587.579c-1.23,2.239-13.718,0-13.718,0l.033-.225.247-1.735h13.158l.251,1.731Z" transform="translate(-326.388 -170.981)"/><path class="k" d="M515.348,590.977c-1.23,2.239-13.718,0-13.718,0l.033-.225c.6,0,9.633-.215,13.669,0Z" transform="translate(-326.388 -174.378)"/><path class="j" d="M479.632,591.438h0s-2.239.56-5.712,9.965-4.7,21.558-4.7,21.558-1.953,3.307,6.382,3.528c0,0-.67,2.184,4.032,1.849s4.026-.332,4.026-.332,3.023-1.9,4.368-1.569a7.076,7.076,0,0,1,3.638,1.679c1.455,1.23,6.105.729,6.161-.221a8.794,8.794,0,0,0,0-1.4s7.111.449,5.767-4.7-2.464-13.607-2.464-13.607-3.639-16.517-7.785-16.741S479.632,591.438,479.632,591.438Z" transform="translate(-304.39 -174.84)"/><rect class="k" width="28.679" height="0.225" transform="matrix(0.092, -0.996, 0.996, 0.092, 171.109, 451.657)"/><rect class="k" width="30.068" height="0.225" transform="translate(179.148 453.146) rotate(-89.78)"/><path class="n" d="M535.18,611.6" transform="translate(-349.019 -188.506)"/><rect class="k" width="0.225" height="30.202" transform="translate(186.067 423.079) rotate(-2.13)"/><path class="k" d="M550.245,638.964a144.337,144.337,0,0,0-3.355-29.079l.218-.055a145.25,145.25,0,0,1,3.362,29.144Z" transform="translate(-356.918 -187.312)"/><path class="k" d="M502.47,596.8s-.391.225,0,1.3" transform="translate(-326.837 -178.522)"/><path class="k" d="M505.3,596.8s-1.064.67,0,1.793" transform="translate(-328.544 -178.522)"/><path class="k" d="M536.9,596.8s1.455,1.4,1.12,1.793" transform="translate(-350.179 -178.522)"/><path class="k" d="M540.5,595.77s.228,1.679,1.068,2.128" transform="translate(-352.607 -177.827)"/><path class="l" d="M722.459,585.772s5.494-2.187,7.869.482-1.627,5.917-1.627,5.917l-1.679,3.352-3.951-.433-.931-4.634Z" transform="translate(-475.133 -170.514)"/><path class="k" d="M728.7,593.835l-1.679,3.352-3.951-.42-.931-4.631.325-4.683.088-.032c.68,3.726,2.5,5.3,2.8,5.533l.046.033,1.116-.091c2.171-1.2,3.316-4.045,3.684-5.123a1.782,1.782,0,0,1,.133.137C732.7,590.574,728.7,593.835,728.7,593.835Z" transform="translate(-475.133 -172.195)"/><path class="l" d="M719.074,606.734s-1.211,15.42-.882,17.281-.7,2-.7,2-4.381.976-5.207.326a4.981,4.981,0,0,0-2.236-.778s-3.255.745-4.706.189a10.725,10.725,0,0,0-3.866-.326s-1.862,1.12-2.376.885-1.165-.14-2.656-.557-2.33-.794-1.539-3.355.1-10.668.049-11.648a49.661,49.661,0,0,0-1.165-6.184c-.654-2.831,1.116-2.236,1.116-2.236,4.149-2.142,2.425-6.337,1.774-8.2s.371-1.953.882-1.953,2.47-1.676,2.47-1.676l.794-.713,2.421-2.174c.6,4.071,2.555,5.78,2.88,6.034l.046.036,1.116-.094c2.7-1.487,3.818-5.533,3.818-5.533a7.058,7.058,0,0,0,1.862,1.77,31.878,31.878,0,0,0,3.31,2.05c1.953,1.165.514,2.33.514,2.33-2.376,8.1.976,8.462.976,8.462C720.239,603.04,719.074,606.734,719.074,606.734Z" transform="translate(-455.91 -172.33)"/><path class="k" d="M714.08,601.69s-.7.374-.7.791" transform="translate(-469.224 -181.821)"/><path class="k" d="M715.188,604.12s-.931.976-.768,1.26" transform="translate(-469.912 -183.46)"/><path class="k" d="M715.813,608s-.7.745-.42,1.165" transform="translate(-470.537 -186.077)"/><path class="k" d="M720.145,595.306l-2.929,2.828a12.86,12.86,0,0,0-2.376-6.721l2.421-2.174C717.854,593.344,719.823,595.052,720.145,595.306Z" transform="translate(-470.208 -173.423)"/><path class="l" d="M721.012,593.586l-2.929,2.831a12.875,12.875,0,0,0-2.372-6.724l2.421-2.174C718.733,591.624,720.686,593.333,721.012,593.586Z" transform="translate(-470.795 -172.263)"/><path class="k" d="M742.109,592.461c-1.172,1.829-3.349,6.659-3.349,6.659l-2.33-2.887c2.7-1.49,3.818-5.533,3.818-5.533A7.313,7.313,0,0,0,742.109,592.461Z" transform="translate(-484.771 -174.407)"/><path class="l" d="M741.243,590.754c-1.168,1.832-3.349,6.662-3.349,6.662l-2.324-2.883c2.7-1.487,3.818-5.533,3.818-5.533A7.374,7.374,0,0,0,741.243,590.754Z" transform="translate(-484.191 -173.261)"/><path class="k" d="M746.114,686.14s-.5,4.231-.784,4.472" transform="translate(-490.775 -238.787)"/><path class="k" d="M760.33,688.43a15.617,15.617,0,0,1,.325,3.726" transform="translate(-500.894 -240.331)"/><path class="k" d="M723.219,689s-.511,2.841,0,3.167" transform="translate(-475.707 -240.716)"/><path class="k" d="M713.7,687.71a35.441,35.441,0,0,0-.325,3.961" transform="translate(-469.206 -239.846)"/><path class="k" d="M759.961,637.47s-1.3,1.025-1.211,1.3" transform="translate(-499.825 -205.956)"/><path class="k" d="M762.033,639.48s-2.493,2.1-1.246,1.862S762.033,639.48,762.033,639.48Z" transform="translate(-500.966 -207.312)"/><path class="o" d="M200.336,390.826l.016-.023-.029-.023h0l-.176-.117.036.026a.583.583,0,0,0-.768.169l-.072.1h0l-3.954,5.689-.69,1.012c-2.086-.628-5.474,2.015-7.189,3.531-.107.094-.208.182-.3.267-.137-.306-.218-.5-.218-.5-.085.931-3.372,2.327-4.14,2.835a2.766,2.766,0,0,1-1.146.384c.111-3.538-2.626-7.261-2.626-7.261l-6.688-8.511a7.512,7.512,0,0,1,.683-4.514c.055-.111.111-.221.173-.325h.033a7.4,7.4,0,0,0-.42,2.223c.016.576.55,3.368,1.3,3.254a.41.41,0,0,0,.384-.182,4.541,4.541,0,0,0,.622-2.978,6.107,6.107,0,0,1-.107.96c.049-.911-.055-1.875-.055-2.561,0-.273,0-.544.02-.817h.081v0h.085a8.986,8.986,0,0,0,4.084-1.894,2.19,2.19,0,0,0,1.536-.719,1.494,1.494,0,0,1-.29,1.393,2.43,2.43,0,0,0,2-1.556,5.429,5.429,0,0,0,.254-2.6,18.091,18.091,0,0,1-.192-2.646,9.733,9.733,0,0,0,.078-1.442,2.777,2.777,0,0,0-.078-.436h.026a.651.651,0,0,0,.465-.182,2.169,2.169,0,0,0,.586-1.276,10.862,10.862,0,0,0,.345-3.03c-.02.309-.059.622-.1.931a4.094,4.094,0,0,0-.856-3.16,6.239,6.239,0,0,0-2-1.266,1.461,1.461,0,0,1-.651-.465,1.885,1.885,0,0,1-.2-.807c-.251-1.712-1.862-2.9-3.466-3.58-2.063-.9-4.556-1.282-6.525-.215a20.706,20.706,0,0,0-2.6,1.988c-1.1.836-2.369,1.422-3.544,2.151a7.1,7.1,0,0,0-2.854,2.91c-.862,1.953-.215,4.166-.107,6.284a10.228,10.228,0,0,1-3.922,8.787,3.519,3.519,0,0,0-.862.745.931.931,0,0,0-.072,1.064c.14.182.361.286.514.459a1.458,1.458,0,0,1,.127,1.338,8.387,8.387,0,0,1-2.278,3.86c.049.345.475.482.823.534a18.957,18.957,0,0,0,2.783.2h.4c-.042.107-.088.221-.133.342-.5,1.328-1.159,3.372-.941,4.621.325,1.972,1.367,10.99.853,12.572s.827,13.051.827,13.051.179.885.488,2.207c-.8,1.894-1.722,4-2.181,4.839-.924,1.689-.469,10.314,2.717,14.147,0,0,1.3,1.862.976,2.535a3.174,3.174,0,0,0,.059,1.862l.5,11.16a28.924,28.924,0,0,1-.234,3.411c-1.36,1.683-3.456,4.137-4.442,4.537-1.526.622-12.911,14.43-12.911,14.43s.091.166.27.436l-.325.371-2.184,2.532-.172.2c-.41-.078-3.141-.573-5.3-.729h-.215v-.039a8.1,8.1,0,0,0-2.278.062.733.733,0,0,0-.378.2c-.739.9-1.136,15.107-1.136,15.107s.788,7.111,3.255,7.508a1.3,1.3,0,0,0,.391.072h.107a3.4,3.4,0,0,0,2.929-1.826,2.828,2.828,0,0,0,.244-.651,5.244,5.244,0,0,1,.482-3.014c.768-1.748,2.2-4.823,2.2-4.823s2.6-2.737,2.138-4.065c.072-.107.156-.225.247-.358.976-1.393,2.955-4.143,4.556-5.978a4.739,4.739,0,0,1,.325-.352,7.994,7.994,0,0,0,1.816.524,6.61,6.61,0,0,0,3.355-3.1,18.424,18.424,0,0,1,3.525-4.078l-.052.413-.055,13.584a9.709,9.709,0,0,0,1.673.921v.325a43.609,43.609,0,0,1-.351,5.79l-.049.3c-.2-.143-.378-.192-.488-.081-.5.508-.814,3.749-.843,5.243v.15c-.081,1.491-.931,3.658,1.627,3.769,1.914.081,10.164.205,14.577.27a9.813,9.813,0,0,0,6.509-2.307c1.4-1.2,2.252-2.63.342-3.681-.117-.065-.241-.127-.378-.189l-4.231-.651-7.228-3.691s-.042-2.233-.911-1.862a2.441,2.441,0,0,0-.732.29c-.042-.081-.088-.169-.13-.26a8.315,8.315,0,0,1-.892-3.762,2.659,2.659,0,0,1,.016-.358,7.183,7.183,0,0,0,.6-.615s-.055-5.074.514-6.031,2.333-10.655,2.333-10.655a4.594,4.594,0,0,1,1.194-2.874c1.139-1.071.739-4.172.739-4.172a5.016,5.016,0,0,0,2.106-3.606c.511-2.76,2.164-8.787,2.164-8.787s3.414-8.908,3.189-14.541a42.555,42.555,0,0,1,.325-8.569l.709-13.1v-.2c.283.215.475.391.475.391v-.143c.1.088.163.143.163.143s.365-5.943.241-8.3c1.992-.677,5.025-1.79,5.207-2.356.254-.843,3.671-3.508,3.671-3.508a.566.566,0,0,1-.208-.078c.107-.049.218-.107.325-.169,2.239-1.2,6.4-4.7,5.7-6.834l4.556-6.538A1.11,1.11,0,0,0,200.336,390.826Z" transform="translate(-77.371 -18.697)"/><path class="p" d="M300.774,487.017a2.969,2.969,0,0,1-1.09.413c-1.422.042-2.6-3.808-2.6-3.808s.4-.41,1.048-.976c1.907-1.7,5.907-4.826,7.782-3.075C308.025,481.527,303.237,485.693,300.774,487.017Z" transform="translate(-188.408 -99.097)"/><path class="p" d="M222.769,768.942l-5.25,5.666s-4.856.055-3.905-2.623a9.794,9.794,0,0,0,.4-1.783,43.823,43.823,0,0,0,.342-5.734c0-1.256-.02-2.138-.02-2.138s7.645-3.349,6.864.14a6.559,6.559,0,0,0-.156,1.328,8.312,8.312,0,0,0,.872,3.726A8.439,8.439,0,0,0,222.769,768.942Z" transform="translate(-132.023 -289.203)"/><path class="k" d="M222.769,782.709l-5.25,5.666s-4.856.055-3.905-2.623a9.794,9.794,0,0,0,.4-1.783,11.194,11.194,0,0,1,1.689,2.119s3.349.976,4.27-1.953a4.971,4.971,0,0,1,1.953-2.844A8.437,8.437,0,0,0,222.769,782.709Z" transform="translate(-132.023 -302.97)"/><path class="g" d="M232.826,791.076a9.549,9.549,0,0,1-6.392,2.278c-4.328-.062-12.416-.189-14.294-.267-2.512-.111-1.679-2.255-1.6-3.733v-.146c.029-1.481.325-4.69.827-5.191s2.216,2.233,2.216,2.233,3.349.976,4.27-1.953,2.792-3.212,2.792-3.212c.849-.368.892,1.842.892,1.842l7.088,3.655,4.159.651c.133.062.254.124.368.185C235.035,788.472,234.2,789.885,232.826,791.076Z" transform="translate(-129.901 -302.803)"/><circle class="q" cx="0.306" cy="0.306" r="0.306" transform="translate(89.522 482.027)"/><circle class="q" cx="0.306" cy="0.306" r="0.306" transform="translate(92.399 483.452)"/><circle class="q" cx="0.306" cy="0.306" r="0.306" transform="translate(93.877 484.113)"/><circle class="q" cx="0.306" cy="0.306" r="0.306" transform="translate(96.945 485.291)"/><circle class="q" cx="0.306" cy="0.306" r="0.306" transform="translate(95.384 484.79)"/><path class="g" d="M232.826,804.308a9.548,9.548,0,0,1-6.392,2.278c-4.328-.062-12.416-.189-14.294-.267-2.512-.111-1.679-2.255-1.6-3.733l15.775.976s6.46-.976,6.834-2.9C235.035,801.7,234.2,803.117,232.826,804.308Z" transform="translate(-129.901 -316.036)"/><path class="p" d="M166.464,734.23a10.893,10.893,0,0,0-1.582,1.588c-1.565,1.816-3.5,4.556-4.462,5.917-.371.534-.6.869-.6.869l-2.1-.309s-2.259-3.46-2.229-3.541,1.79-3.8,1.79-3.8l.68-.8,2.145-2.506.976-1.133S168.355,732.863,166.464,734.23Z" transform="translate(-92.905 -268.723)"/><path class="k" d="M160.42,749.283c-.371.534-.6.869-.6.869l-2.1-.309s-2.259-3.46-2.229-3.541,1.79-3.8,1.79-3.8l.68-.8.221.042h.534c-1.871,1.953.137,6.249.137,6.249A2.282,2.282,0,0,1,160.42,749.283Z" transform="translate(-92.905 -276.264)"/><path class="g" d="M144.34,752.441s-1.4,3.014-2.151,4.745a5.239,5.239,0,0,0-.475,2.984,2.926,2.926,0,0,1-.238.651,3.287,3.287,0,0,1-2.857,1.81h-.137c-2.545-.065-3.352-7.453-3.352-7.453s.391-14.063,1.116-14.971a.7.7,0,0,1,.368-.2,7.812,7.812,0,0,1,2.242-.062c2.3.166,5.259.732,5.259.732h.53c-1.871,1.953.137,6.252.137,6.252a2.3,2.3,0,0,1,1.591,1.337C147.071,749.528,144.34,752.441,144.34,752.441Z" transform="translate(-79.165 -275.049)"/><circle class="q" cx="0.306" cy="0.306" r="0.306" transform="translate(61.797 472.901)"/><circle class="q" cx="0.306" cy="0.306" r="0.306" transform="translate(61.645 475.339)"/><path class="g" d="M140.846,760.631a3.287,3.287,0,0,1-2.857,1.81h-.133c-2.545-.065-3.355-7.453-3.355-7.453s.391-14.063,1.116-14.971a.7.7,0,0,1,.368-.2,7.814,7.814,0,0,1,2.242-.062c-.042,2.529-.163,10.519,0,11.313S139.831,758.513,140.846,760.631Z" transform="translate(-78.74 -274.92)"/><path class="g" d="M137.845,762.7c-2.545-.065-3.355-7.453-3.355-7.453s.391-14.063,1.116-14.971a.7.7,0,0,1,.368-.2c.534.794,1,2.552.579,6.418-.794,7.326.163,7.788.163,7.788A65.178,65.178,0,0,1,137.845,762.7Z" transform="translate(-78.733 -275.172)"/><path class="k" d="M300.774,494.461a2.967,2.967,0,0,1-1.09.413c-1.422.042-2.6-3.808-2.6-3.808s.4-.41,1.048-.976C298.593,491.131,299.876,493.94,300.774,494.461Z" transform="translate(-188.408 -106.541)"/><path class="r" d="M277.523,492.582a3.579,3.579,0,0,0,1.923-.417c.752-.5,3.977-1.884,4.062-2.805,0,0,1.923,4.687,3.014,4.856,0,0-3.349,2.636-3.6,3.473s-6.782,2.89-6.782,2.89Z" transform="translate(-174.283 -106.049)"/><path class="k" d="M176.023,734.23a10.893,10.893,0,0,0-1.582,1.588,11.289,11.289,0,0,1-4.771-4.166l.976-1.133S177.914,732.863,176.023,734.23Z" transform="translate(-102.464 -268.723)"/><path class="g" d="M188.068,669s-4.094,5.471-5.591,6.086-12.657,14.287-12.657,14.287,2.4,4.41,6.808,5.132a6.515,6.515,0,0,0,3.294-3.069c.9-2.122,7.925-8.117,7.925-8.117Z" transform="translate(-102.565 -227.225)"/><path class="k" d="M222.984,762.457a6.558,6.558,0,0,0-.156,1.328c-2.262,2.054-4.986,1.419-6.688.671,0-1.256-.02-2.138-.02-2.138S223.765,758.955,222.984,762.457Z" transform="translate(-133.797 -289.191)"/><path class="g" d="M231.562,541.18l-.081,1.543-.7,12.969a40.768,40.768,0,0,0-.325,8.481c.234,5.578-3.137,14.418-3.137,14.418s-1.627,5.972-2.122,8.706a4.98,4.98,0,0,1-2.063,3.58s.391,3.069-.726,4.13a4.581,4.581,0,0,0-1.172,2.844s-1.731,9.6-2.278,10.551-.5,5.972-.5,5.972c-3.626,4.3-8.927.391-8.927.391l.055-13.451s1.507-12.39,2.623-14.121,1.116-6.473,1.116-6.473l-.5-11.065a2.982,2.982,0,0,1-.055-1.842c.342-.67-.954-2.509-.954-2.509-3.128-3.8-3.58-12.338-2.665-13.994s3.619-8.371,3.619-8.371l3.733-2.177,6.747.2Z" transform="translate(-128.813 -140.72)"/><path class="k" d="M230.1,744.15s.882,3.056,1.591,3.391S230.1,744.15,230.1,744.15Z" transform="translate(-143.227 -277.917)"/><path class="k" d="M233.83,712.9s2.278,1.8,3.255,1.8S233.83,712.9,233.83,712.9Z" transform="translate(-145.743 -256.838)"/><path class="p" d="M239.006,435.8v3.684l-2.431-1.048-2.425-1.045-5.279-5.191a39.959,39.959,0,0,1-6.408-5.181c-1.276-1.409-1.917-2.74-.794-3.443a7,7,0,0,0,1.461-1.279,24.023,24.023,0,0,0,2.91-4.3c.036-.062.072-.124.1-.185,1.087-1.995,1.806-3.7,1.806-3.7a22,22,0,0,1,5.025,2.369c.159.111.309.225.452.342,1.1.9,1.644,1.953.631,2.981a7.8,7.8,0,0,0-.719.859h0a7.042,7.042,0,0,0-.449.7c-.059.111-.117.218-.169.325a7.5,7.5,0,0,0-.67,4.468Z" transform="translate(-137.148 -55.296)"/><path class="s" d="M274.478,395.6c.127.221.3.41.42.635a3.049,3.049,0,0,1,.186,1.562,8.887,8.887,0,0,0,.163,2.493,11.612,11.612,0,0,1,.521,2.2,5.773,5.773,0,0,1-1.051,2.971,2.139,2.139,0,0,0,1.53-.713,1.484,1.484,0,0,1-.28,1.377,2.366,2.366,0,0,0,1.953-1.539,5.366,5.366,0,0,0,.251-2.6,17.772,17.772,0,0,1-.189-2.62,9.587,9.587,0,0,0,.075-1.429,5.184,5.184,0,0,0-1.224-2.539l-1.133-1.556a.8.8,0,0,0-.325-.3C274.3,393.084,274.178,395.056,274.478,395.6Z" transform="translate(-173.066 -41.367)"/><path class="k" d="M244.379,419.8a7.816,7.816,0,0,0-.719.859h0a7.065,7.065,0,0,0-.449.7c-.059.111-.117.218-.169.325a8.787,8.787,0,0,1-6.577-3.554c-.036-.049-.072-.1-.1-.15.036-.062.072-.124.1-.186,1.087-1.995,1.806-3.7,1.806-3.7a22,22,0,0,1,5.025,2.369c.159.111.309.225.452.342C244.831,417.716,245.378,418.757,244.379,419.8Z" transform="translate(-147.449 -55.282)"/><path class="p" d="M248.947,391.24a8.788,8.788,0,0,1-7.2,8.644,8.882,8.882,0,0,1-1.593.143h-.325a8.787,8.787,0,1,1,9.113-8.787Z" transform="translate(-144.084 -33.938)"/><path class="k" d="M255.225,459.309s4.426,2.5,3.294.391l-5.777-8.54h0l6.558,8.426s4.185,5.751,1.9,9.711c0,0-.325,3.294.055,4.075s-.111,9.113-.111,9.113-1.565-1.451-2.4-1.175-6.74.771-6.74.771Z" transform="translate(-158 -80.281)"/><path class="k" d="M261.072,541.537l-.081,1.543c-.531-.384-1.269-.814-1.761-.651-.836.28-6.75.784-6.75.784l.27-1.923Z" transform="translate(-158.323 -141.078)"/><path class="s" d="M255.715,459.309s4.429,2.5,3.294.391l-5.777-8.54h0l6.558,8.426s4.185,5.751,1.9,9.711c0,0-.325,3.294.055,4.075s-.111,9.113-.111,9.113-1.562-1.451-2.4-1.175-6.753.784-6.753.784Z" transform="translate(-158.323 -80.281)"/><path class="k" d="M230.113,455.885a30.486,30.486,0,0,1-1.36,5.878s-.781,7.925-1.793,10.281-.56,5.581-1.116,11.553a7.558,7.558,0,0,1-1.829,4.625,6.855,6.855,0,0,1-5.461,1.881l-.41-.033c-2.792-.277-5.471-13.727-5.471-13.727s-1.282-11.443-.781-13.018-.495-10.483-.83-12.435a10.8,10.8,0,0,1,.921-4.576c.29-.762.527-1.3.527-1.3a13.484,13.484,0,0,1,2.512-4.576,2.3,2.3,0,0,1,1.657-.7,4.143,4.143,0,0,1,2.067.651.583.583,0,0,1,.072.049s10.161,10.382,11.108,12.78A6.136,6.136,0,0,1,230.113,455.885Z" transform="translate(-130.355 -72.577)"/><path class="l" d="M229.087,455.389a30.654,30.654,0,0,1-1.364,5.874s-.781,7.928-1.787,10.271-.557,5.582-1.116,11.554a7.576,7.576,0,0,1-1.829,4.625,6.866,6.866,0,0,1-5.461,1.881l-.41-.033c-2.792-.28-5.471-13.731-5.471-13.731s-1.282-11.44-.781-13-.5-10.492-.836-12.448a10.811,10.811,0,0,1,.921-4.576c.29-.762.527-1.286.527-1.286a13.484,13.484,0,0,1,2.512-4.576,2.278,2.278,0,0,1,1.657-.693,4.074,4.074,0,0,1,2.067.651l.072.046s10.161,10.382,11.108,12.78A6.011,6.011,0,0,1,229.087,455.389Z" transform="translate(-129.661 -72.247)"/><path class="k" d="M227.057,614.38s-2.3,2.05-3.1,1.953S227.057,614.38,227.057,614.38Z" transform="translate(-139.012 -190.381)"/><path class="k" d="M228.807,620.363a33.021,33.021,0,0,1-3.154,1.3C224.928,621.841,227.87,620.074,228.807,620.363Z" transform="translate(-140.151 -194.395)"/><path class="k" d="M264.44,525.651s3.6.042,4.143,1.172S265.6,525.189,264.44,525.651Z" transform="translate(-166.391 -130.493)"/><path class="k" d="M262.89,531.8a13.093,13.093,0,0,1,3.6,1.256C267.326,533.727,262.89,531.8,262.89,531.8Z" transform="translate(-165.346 -134.677)"/><path class="k" d="M237.906,607.768s-2.311,10,2.324,10.623,3.2-11.391,3.2-11.391Z" transform="translate(-148.104 -185.403)"/><path class="p" d="M237.4,607.271s-2.3,10,2.327,10.629,3.2-11.391,3.2-11.391Z" transform="translate(-147.764 -185.072)"/><path class="k" d="M236.481,390.278a3.389,3.389,0,0,1-.325-.609c-.615-1.282-2.2-.651-3.355-.042l-.618.8a4.961,4.961,0,0,0-.706,1.09,8.25,8.25,0,0,0-.3.976c-.159.566-.394,1.107-.605,1.66a19.3,19.3,0,0,0-1.233,5.741,8.894,8.894,0,0,1-1.595.143h-.039V400c.059-.221.107-.446.153-.67h0a11.612,11.612,0,0,0,.088-3.84V395.4c-.042-.283-.1-.57-.12-.853-.107.2-.212.394-.325.6a6.376,6.376,0,0,1-2.757,3.173,5.653,5.653,0,0,1-1.676.378,9.561,9.561,0,0,0-2.1.348,1.3,1.3,0,0,0-.609.368,1.8,1.8,0,0,0-.306.918,7.4,7.4,0,0,1-.325,1.273A11.157,11.157,0,0,1,217,405.675l-.3.293a5.666,5.666,0,0,1-1.81,1.253,5.533,5.533,0,0,1-1.917.286c.29-.762.527-1.286.527-1.286a13.484,13.484,0,0,1,2.512-4.576,2.278,2.278,0,0,1,1.657-.693,24.581,24.581,0,0,0,3.014-4.481,8.787,8.787,0,1,1,15.807-6.184Z" transform="translate(-131.672 -33.946)"/><path class="t" d="M229.168,371.029a6,6,0,0,0-1.953-1.253,1.488,1.488,0,0,1-.635-.462,1.933,1.933,0,0,1-.2-.8c-.244-1.7-1.826-2.874-3.4-3.564-2.024-.889-4.455-1.269-6.4-.215a20.768,20.768,0,0,0-2.542,1.972c-1.08.827-2.324,1.406-3.476,2.128a6.828,6.828,0,0,0-2.8,2.883c-.846,1.92-.212,4.124-.1,6.219a10.227,10.227,0,0,1-3.847,8.716,3.358,3.358,0,0,0-.846.739.928.928,0,0,0-.068,1.051c.133.182.355.286.5.456a1.446,1.446,0,0,1,.124,1.328,8.305,8.305,0,0,1-2.233,3.818c.046.345.462.478.8.53a18.264,18.264,0,0,0,2.731.2,4.589,4.589,0,0,0,3.818-1.539,10.366,10.366,0,0,0,3.372-5.64,1.859,1.859,0,0,1,.306-.918,1.377,1.377,0,0,1,.609-.368c1.214-.417,2.6-.211,3.772-.726,1.523-.651,2.278-2.278,3.076-3.769.026.283.078.57.124.856a11.573,11.573,0,0,1-.228,4.6,9.536,9.536,0,0,0-.511,2.571c.016.651.677,4.052,1.546,3.033s.55-3.271.55-4.534a19.38,19.38,0,0,1,1.279-6.916c.208-.55.446-1.094.605-1.66a8.9,8.9,0,0,1,.293-.976,5.1,5.1,0,0,1,.709-1.09l.622-.8c1.159-.615,2.74-1.24,3.355.042.234.491.361,1.035.976.557a2.187,2.187,0,0,0,.573-1.263C230.066,374.462,230.385,372.376,229.168,371.029Z" transform="translate(-123.8 -21.554)"/><path class="k" d="M226.906,468.953c-.238-6.011-8.65-7.254-10.613-1.569a.832.832,0,0,0-.039.117c-1.286,3.85-.726,13.6-.726,13.6s.166,6.548.781,8.725,2.343,8.426,2.343,9.438,1.6,4.856,2.278,5.136,1.015,2.454,1.181,2.844.651,5.471.651,5.471,6.307-.391,6.418-1.4-1.4-5.917-1.4-5.917a11.384,11.384,0,0,1-1.253-3.626c-.143-1.617-1.015-2.353-.843-3.469s-.5-1.673-.5-2.4a17.856,17.856,0,0,0-.5-2.678s-1.061-.84-.892-1.842-1.507-3.014-1.061-3.739a7.552,7.552,0,0,0,.557-2.512s.56-8.035.95-10.213,2.678-5.692,2.678-5.692S226.913,469.132,226.906,468.953Z" transform="translate(-133.316 -88.753)"/><path class="k" d="M225.263,503.865a6.866,6.866,0,0,1-5.461,1.881c-.2-.762-.495-1.7-.921-1.875-.677-.28-2.278-4.13-2.278-5.132s-1.728-7.258-2.343-9.438-.781-8.722-.781-8.722-.56-9.764.726-13.6a.339.339,0,0,1,.039-.114c1.953-5.689,10.375-4.442,10.613,1.569v.277s-2.278,3.515-2.678,5.692-.944,10.213-.944,10.213a7.582,7.582,0,0,1-.56,2.512c-.446.726,1.227,2.737,1.061,3.739a2.293,2.293,0,0,0,.892,1.842,17.833,17.833,0,0,1,.5,2.682c0,.729.67,1.282.5,2.4s.726,1.842.869,3.46a9.02,9.02,0,0,0,.762,2.62Z" transform="translate(-131.934 -88.399)"/><path class="l" d="M225.876,468.443c-.238-6.011-8.65-7.254-10.613-1.569l-.039.114c-1.286,3.853-.726,13.6-.726,13.6s.166,6.545.781,8.722,2.343,8.429,2.343,9.438,1.6,4.856,2.278,5.136,1.015,2.457,1.181,2.848.651,5.468.651,5.468,6.307-.391,6.418-1.393-1.393-5.917-1.393-5.917a11.39,11.39,0,0,1-1.256-3.629c-.143-1.618-1.035-2.343-.866-3.46s-.5-1.676-.5-2.4a17.854,17.854,0,0,0-.5-2.678,2.277,2.277,0,0,1-.892-1.842c.169-1.006-1.507-3.014-1.061-3.739a7.537,7.537,0,0,0,.557-2.509s.56-8.039.95-10.216,2.678-5.692,2.678-5.692A1.416,1.416,0,0,0,225.876,468.443Z" transform="translate(-132.621 -88.409)"/><g class="m" transform="translate(77.595 351.681)"><path d="M206.755,437.538a.862.862,0,0,1,.166.3,1.3,1.3,0,0,0-.166-1.139c-.15-.173-.368-.273-.5-.456l-.026-.046a.862.862,0,0,0,.026.882C206.4,437.264,206.605,437.368,206.755,437.538Z" transform="translate(-204.643 -421.87)"/><path d="M220.475,397.88v-.95c-.059-1.139-.27-2.307-.325-3.45a41.7,41.7,0,0,0,.325,4.286C220.475,397.8,220.472,397.834,220.475,397.88Z" transform="translate(-214.103 -393.054)"/><path d="M258.046,444.267c-.775.908-1.383-1.705-1.517-2.737a4.3,4.3,0,0,0-.029.54c.02.651.677,4.052,1.546,3.033a4.463,4.463,0,0,0,.612-2.949A3.51,3.51,0,0,1,258.046,444.267Z" transform="translate(-238.629 -425.466)"/><path d="M220.2,417.656a11.194,11.194,0,0,1,.12,1.321,11.435,11.435,0,0,0-.12-2.161c-.042-.283-.1-.57-.124-.856-.8,1.5-1.549,3.111-3.072,3.772-1.181.511-2.558.309-3.772.726a1.3,1.3,0,0,0-.609.368,1.816,1.816,0,0,0-.306.918,10.41,10.41,0,0,1-3.375,5.64,4.589,4.589,0,0,1-3.818,1.539,18.657,18.657,0,0,1-2.727-.2,2.064,2.064,0,0,1-.41-.107c-.127.143-.26.28-.4.413.046.345.465.478.807.531a18.225,18.225,0,0,0,2.727.2,4.589,4.589,0,0,0,3.818-1.539,10.391,10.391,0,0,0,3.375-5.64,1.826,1.826,0,0,1,.306-.918,1.341,1.341,0,0,1,.609-.368c1.214-.417,2.6-.211,3.772-.726,1.523-.651,2.278-2.278,3.072-3.769C220.1,417.083,220.157,417.369,220.2,417.656Z" transform="translate(-201.59 -408.217)"/><path d="M271.353,394.334a2.2,2.2,0,0,1-.576,1.263c-.612.475-.736-.065-.976-.557-.615-1.282-2.2-.651-3.355-.042l-.622.8a4.962,4.962,0,0,0-.706,1.09,7.674,7.674,0,0,0-.293.976c-.163.566-.4,1.107-.609,1.657a19.479,19.479,0,0,0-1.276,6.916v.345a19.429,19.429,0,0,1,1.273-6.421c.212-.55.446-1.093.609-1.66a7.665,7.665,0,0,1,.293-.976,4.961,4.961,0,0,1,.706-1.09l.622-.8c1.159-.615,2.74-1.24,3.355.042.238.491.361,1.035.976.557a2.19,2.19,0,0,0,.576-1.263,11.039,11.039,0,0,0,.325-3A14.353,14.353,0,0,1,271.353,394.334Z" transform="translate(-242.974 -392.17)"/></g><path class="s" d="M311.9,470.48l.173.117a.69.69,0,0,1-.179-.976l7.759-11.241a.687.687,0,0,1,.96-.176l-.172-.12a1.11,1.11,0,0,1,.283,1.543l-7.28,10.567A1.113,1.113,0,0,1,311.9,470.48Z" transform="translate(-198.313 -84.949)"/><path class="u" d="M.566,0H.726V15.055H.566A.566.566,0,0,1,0,14.489V.57A.566.566,0,0,1,.566,0Z" transform="translate(121.742 372.856) rotate(34.56)"/><rect class="s" width="0.14" height="1.227" rx="0.07" transform="translate(121.18 374.823) rotate(34.56)"/><path class="a" d="M818.321,328.607A5.62,5.62,0,1,1,812.7,323a5.621,5.621,0,0,1,5.62,5.607Zm-6.271,2.975,4.172-4.169a.364.364,0,0,0,0-.511l-.514-.514a.358.358,0,0,0-.511,0l-3.4,3.4-1.588-1.582a.368.368,0,0,0-.514,0l-.511.514a.358.358,0,0,0,0,.511l2.356,2.356a.358.358,0,0,0,.511,0Z" transform="translate(-532.429 6.169)"/><path class="a" d="M609.111,518.121a5.621,5.621,0,1,1-5.621-5.621A5.621,5.621,0,0,1,609.111,518.121ZM602.84,521.1l4.185-4.169a.361.361,0,0,0,0-.514l-.527-.495a.361.361,0,0,0-.514,0l-3.4,3.385-1.588-1.588a.358.358,0,0,0-.511,0l-.514.511a.368.368,0,0,0,0,.514l2.356,2.356a.361.361,0,0,0,.514,0Z" transform="translate(-391.306 -121.658)"/><path class="a" d="M609.111,706.78a5.621,5.621,0,1,1-5.621-5.62A5.621,5.621,0,0,1,609.111,706.78Zm-6.271,2.975,4.185-4.169a.361.361,0,0,0,0-.514l-.511-.511a.361.361,0,0,0-.514,0l-3.4,3.4-1.588-1.588a.358.358,0,0,0-.511,0l-.514.511a.368.368,0,0,0,0,.514l2.356,2.356a.361.361,0,0,0,.514,0Z" transform="translate(-391.306 -248.918)"/><g transform="translate(104.619 92.644)"><path class="v" d="M863.452,574.935c-.1.184-.2.363-.31.533a8.461,8.461,0,1,1-11.922-11.5,7.769,7.769,0,0,1,1.019-.592,8.458,8.458,0,0,1,11.51,10.932C863.661,574.522,863.561,574.729,863.452,574.935Z" transform="translate(-619.648 -400.83)"/><path class="w" d="M875.344,588.043c-.1.184-.2.363-.31.533l-10.476-7.284,11.083,6.128C875.553,587.63,875.453,587.837,875.344,588.043Z" transform="translate(-631.541 -413.937)"/><path class="w" d="M858.841,598.2l-11.013-4.247a8.466,8.466,0,0,1-.231-1.474Z" transform="translate(-619.705 -421.741)"/><path class="w" d="M868.793,569.466l-9.019-3.48a7.788,7.788,0,0,1,1.019-.592Z" transform="translate(-628.203 -402.844)"/></g><g transform="translate(-179.381 181.644)"><path class="v" d="M863.452,574.935c-.1.184-.2.363-.31.533a8.461,8.461,0,1,1-11.922-11.5,7.769,7.769,0,0,1,1.019-.592,8.458,8.458,0,0,1,11.51,10.932C863.661,574.522,863.561,574.729,863.452,574.935Z" transform="translate(-619.648 -400.83)"/><path class="w" d="M875.344,588.043c-.1.184-.2.363-.31.533l-10.476-7.284,11.083,6.128C875.553,587.63,875.453,587.837,875.344,588.043Z" transform="translate(-631.541 -413.937)"/><path class="w" d="M858.841,598.2l-11.013-4.247a8.466,8.466,0,0,1-.231-1.474Z" transform="translate(-619.705 -421.741)"/><path class="w" d="M868.793,569.466l-9.019-3.48a7.788,7.788,0,0,1,1.019-.592Z" transform="translate(-628.203 -402.844)"/></g></g></svg>