<svg xmlns="http://www.w3.org/2000/svg" width="341.741" height="214.323" viewBox="0 0 341.741 214.323"><defs><style>.a{fill:#601ed9;}.b{fill:#be6f72;}.c{opacity:0.1;}.d{fill:#270c59;}.e{fill:#fbbebe;}.f{fill:#31d0e9;}.g{fill:#3f3d56;}.h{fill:#9258fe;}.i{fill:#b48bff;}.j{fill:#fff;}</style></defs><g transform="translate(-35.818 -267.173)"><path class="a" d="M-3209.171-5848.316a99.994,99.994,0,0,1-15.37-1.272c-3.452-.541-7.076-1.266-10.771-2.155l-.315-.076-.051-.012c-.3-.072-.613-.147-.921-.214-5.593-1.4-11.114-3.06-16.454-4.667l-.024-.007c-6.01-1.809-12.226-3.679-18.568-5.183-4.106-.975-8.354-1.814-12.627-2.5-2.109-.334-4.234-.638-6.314-.9-3.069-.382-6.218-.69-9.359-.918l7.6-44.512-15.415,44.108c-1.312-.04-2.607-.06-3.849-.06a79.857,79.857,0,0,0-14.451,1.161c-.872.159-1.735.339-2.564.535-1.048.245-2.108.533-3.15.856a56.248,56.248,0,0,0-8.085,3.328c-.538.266-1.039.517-1.53.767-.651.331-1.309.672-1.946,1l-.158.082c-.867.449-1.764.913-2.657,1.363a60.287,60.287,0,0,1-8.941,3.8,47.67,47.67,0,0,1-5.135,1.31,74.812,74.812,0,0,1-14.383,1.308c-2.533,0-4.847-.057-7.077-.175h-.073c-.907-.048-1.694-.1-2.406-.15-3.7-.252-7.361-.642-10.889-1.161a119.4,119.4,0,0,1-18.387-4.125l-13.834-30.745,6.522,28.11a73.33,73.33,0,0,1-7.648-3.654,45.6,45.6,0,0,1-15.046-12.754,26,26,0,0,1-3.815-7.512,19.167,19.167,0,0,1-.761-7.835v-.022l29.74-23.794-27.532,16.4c2.135-4.6,5.48-9.083,8.715-13.414l.5-.668c9.255-12.419,18.474-25.833,23.222-39.769.993-2.917,1.818-5.926,2.616-8.836v0a108.317,108.317,0,0,1,3.994-12.529,41.749,41.749,0,0,1,7.142-11.808,46.061,46.061,0,0,1,10.613-8.757,68.163,68.163,0,0,1,9.825-4.967,85.1,85.1,0,0,1,11.843-3.863,94.334,94.334,0,0,1,10.619-2c1.975-.257,3.955-.452,5.886-.58,1.505-.105,3.05-.173,4.591-.2h.237c.483-.009.958-.014,1.411-.014s.927,0,1.409.014a131.852,131.852,0,0,1,20.444,1.922c3.94.658,8.036,1.483,12.523,2.525,2.4.555,4.848,1.155,7.282,1.783.792.2,1.529.4,2.192.577,10.291,2.756,20,6.2,29.391,9.536,6.236,2.213,12.684,4.5,19.265,6.576l.043.014.013,0c.066.021.128.041.194.057a101.769,101.769,0,0,0,10.293,2.585c2.453.491,5.01.93,7.817,1.342,3.657.54,7.712,1.025,12.4,1.484l.924.09c3.921.384,7.907.709,11.762,1.024l.078.006c2.139.175,4.352.355,6.5.542,1.874.163,4.092.361,6.337.6,1.3.13,2.619.271,3.932.42l.561.065.162.019c.682.08,1.387.162,2.08.247l.377.046h.012c.82.1,1.669.2,2.5.311.761.1,1.339.171,1.874.246,3.965.525,7.768,1.1,11.3,1.708,2.355.406,4.633.832,6.768,1.266,1.607.326,3.225.676,4.81,1.04,1.189.269,2.369.552,3.506.842a107.165,107.165,0,0,1,25.813,9.656,58.194,58.194,0,0,1,11.917,8.579l-21.193,7,25.279-2.626a36.737,36.737,0,0,1,6.7,12.03,28.282,28.282,0,0,1,1.147,12.672c-14.328-5.943-30.29-12.542-34.841-14.423l-.184-.076,32.788,22.139a47.806,47.806,0,0,1-7.5,11.347,120.531,120.531,0,0,1-10.41,10.524c-6.728,6.162-14.027,12.2-21.695,17.955-2.148,1.613-4.338,3.211-6.507,4.75l-1.53,1.08c-1.341.948-2.733,1.908-4.139,2.853l-.169.115c-1.3.884-2.686,1.81-4.118,2.751a113.85,113.85,0,0,1-14.615,8.379c-1.921.889-3.75,1.645-5.592,2.311-1.02.372-2.094.73-3.192,1.064-1.861.567-3.666,1.026-5.517,1.4-.322.066-.637.129-.963.19-1.9.356-3.9.631-5.931.817C-3204.518-5848.419-3206.827-5848.316-3209.171-5848.316Z" transform="translate(3485.48 6329.813)"/><path class="b" d="M355.478,312.59a11.726,11.726,0,0,1-.159,2.736c-.6,2.793-3.145,4.711-5.607,6.166s-5.168,2.832-6.632,5.288a9,9,0,0,0,.869,9.729,14.343,14.343,0,0,0,8.734,5.111,20.222,20.222,0,0,0,17.534-4.783,19.12,19.12,0,0,0,5.805-17.137c-2.507.352-4.741-1.861-5.553-4.26s-.643-5-.959-7.516a2.58,2.58,0,0,0-.373-1.2,2.7,2.7,0,0,0-1.554-.845c-2.9-.8-7.775-2.54-10.778-1.873C354.1,304.623,355.433,310.317,355.478,312.59Z" transform="translate(-212.665 26.542)"/><path class="c" d="M355.478,312.59a11.726,11.726,0,0,1-.159,2.736c-.6,2.793-3.145,4.711-5.607,6.166s-5.168,2.832-6.632,5.288a9,9,0,0,0,.869,9.729,14.343,14.343,0,0,0,8.734,5.111,20.222,20.222,0,0,0,17.534-4.783,19.12,19.12,0,0,0,5.805-17.137c-2.507.352-4.741-1.861-5.553-4.26s-.643-5-.959-7.516a2.58,2.58,0,0,0-.373-1.2,2.7,2.7,0,0,0-1.554-.845c-2.9-.8-7.775-2.54-10.778-1.873C354.1,304.623,355.433,310.317,355.478,312.59Z" transform="translate(-212.665 26.542)"/><path class="b" d="M342.048,746.952a60.119,60.119,0,0,1-8.941,3.794,47.356,47.356,0,0,1-5.135,1.311,32.321,32.321,0,0,1,.376-6.915,36.825,36.825,0,0,0,.67-3.947,10.354,10.354,0,0,0-1.188-5.544c3.349-.457,6.53-1.2,9.894-.983l.213.015a3.75,3.75,0,0,1,1.173.219,3.165,3.165,0,0,1,1.272,1.118,7.709,7.709,0,0,1,.478.737,11.724,11.724,0,0,1,1.386,5.487A36.489,36.489,0,0,1,342.048,746.952Z" transform="translate(-202.737 -274.722)"/><path class="b" d="M406.721,749.228q-1.605.376-3.151.857a56.1,56.1,0,0,0-8.084,3.328,11.925,11.925,0,0,1-.247-2.489,13.9,13.9,0,0,1,10.628-2.186,1.4,1.4,0,0,1,.673.271A.9.9,0,0,1,406.721,749.228Z" transform="translate(-249.88 -284.399)"/><path class="d" d="M349.538,617.068a23.085,23.085,0,0,1-1.2,5.787c-.755,1.984-1.981,3.908-1.825,6.028.069.92.382,1.918.427,2.829q-1.3.237-2.564.535-1.605.376-3.151.857a56.1,56.1,0,0,0-8.084,3.328c-.514.253-1.022.508-1.53.767h0c-.21-.027-.418-.06-.628-.1a6.151,6.151,0,0,1-3.936-2.15,3.45,3.45,0,0,1-.454-.9c-.49-1.464.021-3.289-1-4.449l-.048.042-.036.024a10.093,10.093,0,0,1-1.828,1.317h0a12.251,12.251,0,0,1-9.921.956,10.872,10.872,0,0,1-1.861-.836c-1.377-.785-2.706-2.1-2.6-3.68.06-.878.562-1.72.427-2.589a5.415,5.415,0,0,0-.815-1.69c-2.011-3.608.388-8.247-.875-12.167-.03-.093-.063-.186-.1-.277-.093-.256-.2-.5-.3-.749-.259-.574-.547-1.139-.776-1.729a10.065,10.065,0,0,1-.451-1.524,19.077,19.077,0,0,1-.3-4.576,47.867,47.867,0,0,1,1.75-12.062c.183-.691.388-1.669.658-2.733h0a20.93,20.93,0,0,1,1.064-3.283c.6-1.383,1.419-2.486,2.537-2.748,1.684-.394,4.257.439,5.965.643l6.749.806,13.5,1.615c2.33.28,4.777.6,6.7,1.912.126.087.25.177.373.274a7.62,7.62,0,0,1,1.353,1.377c.138.177.271.364.4.553a12.515,12.515,0,0,1,1.112,2.122c1.675,4.023,1.714,8.511,1.726,12.868A131.477,131.477,0,0,1,349.538,617.068Z" transform="translate(-187.529 -167.417)"/><path class="b" d="M486.936,203.612c2.213-3.608,5.243-7.155,5.054-11.373a22.539,22.539,0,0,0-.938-4.447,28.369,28.369,0,0,1-.207-13.015,14.7,14.7,0,0,1,10.631,2.381,6.067,6.067,0,0,1,2.348,2.64,7.639,7.639,0,0,1,.262,3.274c-.165,2.528-.391,5.225-1.948,7.215-.484.622-1.079,1.148-1.551,1.777a11.5,11.5,0,0,0-1.485,3.076l-5.111,13.9c-2.579,7.008-5.375,14.338-11.058,19.187-.138.117-4.209-5.664-4.546-6.244-1.362-2.378-.767-3.382.881-5.373C482.516,212.679,484.281,207.932,486.936,203.612Z" transform="translate(-307.501 116.943)"/><path class="e" d="M268.211,665.33a23.09,23.09,0,0,1-.262,3.1c-.054.379-.117.755-.192,1.13-1.025,5.352-3.578,10.441-5.363,15.655a90.966,90.966,0,0,0-4.209,19.686c-2.366,0-4.735-.051-7.077-.174h-.072c-.8-.042-1.6-.09-2.405-.15.725-6.374-.6-13.06.694-19.44.523-2.567,1.416-5.06,1.954-7.615a21.571,21.571,0,0,0,.376-2.279,6.112,6.112,0,0,1,.442-2.138,1.564,1.564,0,0,1,.1-.183,5.149,5.149,0,0,1,1.058-1.2,26.406,26.406,0,0,1,12.946-6.172C266.885,665.453,267.55,665.375,268.211,665.33Z" transform="translate(-147.348 -226.258)"/><path class="e" d="M214.832,686.458a47.108,47.108,0,0,1-.412,4.994c-.8,6.768-.953,13.83-1.5,20.7-.8-.042-1.6-.09-2.405-.15-3.656-.25-7.3-.634-10.889-1.161q.415-2.321.836-4.642a25.134,25.134,0,0,0,.586-5.736,33.575,33.575,0,0,0-.968-5.373c-.827-3.818-1.29-7.937-2.652-11.539a15.034,15.034,0,0,0-3.325-5.412c5.634-2.213,11.049-2.339,17.1-2.1a2.168,2.168,0,0,1,1.227.3,2.074,2.074,0,0,1,.616.932,23.32,23.32,0,0,1,1.693,6.861A22.507,22.507,0,0,1,214.832,686.458Z" transform="translate(-109.212 -233.685)"/><circle class="b" cx="11.725" cy="11.725" r="11.725" transform="translate(139.278 314.13)"/><path class="f" d="M346.764,364.5c1.5-2.565,2.82-5.766,5.712-6.479a8.873,8.873,0,0,1,4.922.691,2.4,2.4,0,0,1,1.2.7,2.363,2.363,0,0,1,.364,1.245,81.491,81.491,0,0,1-.051,15.934c-.382,3.749-1.025,7.48-1.139,11.247-.159,5.222.7,10.444.418,15.661a71.992,71.992,0,0,1-1.939,11.7l-3.608,16.175a2.757,2.757,0,0,1-.58,1.368,2.706,2.706,0,0,1-1.064.6,39.613,39.613,0,0,1-32.058-2.51,9.726,9.726,0,0,1-3.448-2.763,8.1,8.1,0,0,1-.923-6.1c.391-2.074,1.236-4.032,1.8-6.067a46.689,46.689,0,0,0,1.284-9.723,77.024,77.024,0,0,0,.069-12.928c-.316-2.955-.974-5.866-1.47-8.8a97.03,97.03,0,0,1-1.269-13.358c-.075-2.673.048-5.64,1.9-7.567a8.715,8.715,0,0,1,3.328-1.96,9.835,9.835,0,0,1,6.422-.511c2.074.691,3.746,2.868,3.256,5-.225.989-.866,1.855-1.022,2.859a4.121,4.121,0,0,0,1.5,3.566C335.79,377.383,344.061,369.145,346.764,364.5Z" transform="translate(-193.323 -11.245)"/><path class="d" d="M402.106,314.349a8.866,8.866,0,0,1,5.138-.3c1.085.259,2.258.716,3.259.232.364-.174.664-.46,1.031-.622.992-.436,2.279.1,3.157-.535a3.107,3.107,0,0,0,.92-1.789,16.04,16.04,0,0,1,5.3-8.033c-.316,2.306-.544,4.931.98,6.692a6.682,6.682,0,0,0,2.655,1.693,7.94,7.94,0,0,0,4.465.628,3.871,3.871,0,0,0,3.13-2.943c-.051,2.264-2.207,3.845-2.811,6.031-.228.818-.207,1.687-.367,2.522-.406,2.135-1.93,3.848-3.262,5.568a39.613,39.613,0,0,0-7.877,19.007,9.17,9.17,0,0,1-.511,2.405,15.117,15.117,0,0,1-1,1.72c-2.2,3.722-1.524,8.418-.776,12.669a181.636,181.636,0,0,0,4.23,19.674,6.832,6.832,0,0,0,1.518,3.076c-.262,2.625-2.91,3.821-5.291,4.955a25.956,25.956,0,0,0-6.434,4.356,5.07,5.07,0,0,0-1.611,2.24c-.234.845-.066,1.774-.367,2.595s-1.5,1.41-2.032.719c-.661-2.474.469-5.063.418-7.624-.036-1.729-.6-3.409-.682-5.138a16.442,16.442,0,0,1,1.112-5.736c1.708-5.174,3.77-10.3,4.362-15.715s-.514-11.328-4.356-15.192c-4.561-4.606-7.092-10.85-11.981-15.08-.776-.67-1.654-1.5-1.524-2.519a2.805,2.805,0,0,1,.574-1.221c1.678-2.369,3.908-4.3,5.712-6.569S402.434,317.235,402.106,314.349Z" transform="translate(-248.235 26.93)"/><path class="g" d="M323.772,354.643a8.785,8.785,0,0,1-.857.974,2.826,2.826,0,0,1-1.35.418,43.64,43.64,0,0,1-5.342.478,16.489,16.489,0,0,0-4.51.28,8.049,8.049,0,0,0-4.639,4,19.832,19.832,0,0,0-1.876,5.974,79.89,79.89,0,0,0-1.368,13.8,36.284,36.284,0,0,0,6.569-6.819c1.443-1.957,2.751-4.122,4.81-5.43.947-.6,2.011-1,2.964-1.584a17,17,0,0,0,4.687-5.111c.974-1.416,3.791-4.182,4.014-5.878C327.064,354.12,324.824,353.329,323.772,354.643Z" transform="translate(-185.952 -8.515)"/><path class="g" d="M373.164,238.671a9.508,9.508,0,0,1,1.064.743c2.041,1.425,4.774,1.16,7.243.836a5.436,5.436,0,0,0,2.186-.6,3.417,3.417,0,0,0,1.431-3.19,6.351,6.351,0,0,0-1.47-3.307,11.9,11.9,0,0,0-8.223-4.486,5.291,5.291,0,0,0-2.462.262,19.84,19.84,0,0,0-2.6,1.774c-2.643,1.624-6.713.9-8.418,3.494-1.248,1.912-.358,4.51-.947,6.707-.439,1.642-1.7,3.136-1.461,4.81a7.761,7.761,0,0,0,1.151,2.5,11.027,11.027,0,0,1,1.38,6.082c1.157.818,2.772-.454,3.094-1.831s-.048-2.844.225-4.233c.484-2.438,2.637-4.227,3.608-6.464C369.664,240.159,370.8,237.453,373.164,238.671Z" transform="translate(-224.87 79.158)"/><path class="e" d="M280.375,328.629a2.266,2.266,0,0,0,.156,1.614c.6.9,1.978.577,3.061.712a4.169,4.169,0,0,1,3.259,3.481,11.445,11.445,0,0,1-.49,5.033q-1.449,5.6-3.451,11.043c-3.59-.424-7.369-1.8-9.275-4.867-1.732-2.787-1.554-6.338-2.655-9.428a23.562,23.562,0,0,0-3.53-5.929c2.2.277,3.779-2.243,3.908-4.462s-.568-4.471-.093-6.638c.111-.514,8.8,1.106,9.642,1.693C283.348,322.574,280.76,326.278,280.375,328.629Z" transform="translate(-160.51 15.888)"/><circle class="e" cx="11.725" cy="11.725" r="11.725" transform="translate(106.207 317.438)"/><path class="g" d="M224.842,275.381c.427-.667-.3-1.6.033-2.318.2-.433.7-.619,1.088-.9a4.056,4.056,0,0,0,1.133-1.47,17.088,17.088,0,0,0,1.563-11.409c-.277-1.3-.523-3.024.664-3.608a2.155,2.155,0,0,1,1.049-.18c2.141.069,4.209,1.5,6.286,1a3.608,3.608,0,0,0,2.646-3.148c.135-1.942-1.32-3.608-2.751-4.916-2.577-2.369-6.5-2.9-10-2.952l-6.509-.108c-2.083-.036-4.419.03-5.869,1.524-2.086,2.15-1.037,5.667-1.338,8.647a9.019,9.019,0,0,1-3.307,6.058c-1.35,1.076-3.208,2.1-3.184,3.824a6.217,6.217,0,0,0,.424,1.717,8.284,8.284,0,0,1-1.245,6.7,17.877,17.877,0,0,1-5.072,4.81,14.141,14.141,0,0,0-2.922,2.345,6.915,6.915,0,0,0-1.524,3.887,5.111,5.111,0,0,0,.637,3.136c1.272,2.032,4.323,2.33,6.413,1.151s3.364-3.409,4.209-5.652c.505-1.332,1.019-2.856,2.312-3.454,1.635-.761,3.548.442,4.612,1.9s1.72,3.238,3.082,4.422a5.5,5.5,0,0,0,7.57-.625,8.51,8.51,0,0,0,1.5-5.763A8.4,8.4,0,0,0,224.842,275.381Z" transform="translate(-110.521 67.452)"/><path class="h" d="M189.6,356.405a4.315,4.315,0,0,1-3.731-1.29,14.819,14.819,0,0,1-2.363-3.34,58.8,58.8,0,0,0-6.058-8.4c-1.972-2.276-4.717-4.588-7.645-3.884a7.255,7.255,0,0,0-2.67,1.428,19.464,19.464,0,0,0-7.267,17.371c.228,1.915.749,3.788.965,5.712a36.612,36.612,0,0,1,.126,4.771c-.081,4.846-.247,9.972-2.859,14.055-4.05,6.314-6.217,13.854-9.191,20.744a70.805,70.805,0,0,0-3.512,11.635q-.839,3.511-1.675,7.02l-3.638,15.3a10.208,10.208,0,0,0-.355,4.81c.6,2.357,2.817,4,5.153,4.675a26.961,26.961,0,0,0,7.236.577,40.506,40.506,0,0,1,13.676,2.234,14.666,14.666,0,0,0,3.812,1.118,8.869,8.869,0,0,0,3.887-.719c3.388-1.311,6.292-3.608,9.413-5.463a37.2,37.2,0,0,1,6.133-2.967,6.727,6.727,0,0,0,2.955-1.653,5.341,5.341,0,0,0,.989-2.36c1.016-4.738.334-9.648,0-14.482s-3.223-9.942-.833-14.157a11.342,11.342,0,0,0,1.3-2.613c.325-1.233.051-2.559.325-3.8a19.673,19.673,0,0,1,1.016-2.628,13.853,13.853,0,0,0,.649-4.9A53.743,53.743,0,0,0,194.3,384.38c-.947-4.51,2.186-8.968,3.981-13.228a21.011,21.011,0,0,0,1.822-4.6,14.171,14.171,0,0,0-.3-4.449,38.933,38.933,0,0,1-.421-6.915,23.265,23.265,0,0,0-.219-6.205c-.5-2.017-1.912-3.975-3.947-4.389a1.612,1.612,0,0,0-1.359.214,1.758,1.758,0,0,0-.478.842c-.661,2.026-.532,4.209-.9,6.314S191.671,355.961,189.6,356.405Z" transform="translate(-71.066 1.709)"/><path class="b" d="M197.878,434.558c.123-.833-.265-1.939-1.106-1.909-.776.03-1.121,1-1.118,1.78s.108,1.672-.442,2.219c-.487.484-1.293.469-1.858.863a1.527,1.527,0,0,0-.64,1.254c0,.418.189.818.2,1.236s-.268.9-.682.875a1.885,1.885,0,0,0,.274,2.285c.216.21.5.391.571.686a1.653,1.653,0,0,1-.048.616,1.614,1.614,0,0,0,1.278,1.843,1.013,1.013,0,0,0,.054,1.5,2.352,2.352,0,0,0,1.614.463,9.813,9.813,0,0,0,3.791-.785,2.261,2.261,0,0,0,1.046-.722.9.9,0,0,0-.087-1.167,1.767,1.767,0,0,0,1.666-.3c.532-.631-.039-1.566-.6-2.177a1.2,1.2,0,0,0,.559-2.141c-.192-.141-.454-.265-.481-.5s.174-.391.259-.6c.192-.472-.247-.953-.67-1.239-1-.667-2.483-.655-3.376-1.329S197.749,435.46,197.878,434.558Z" transform="translate(-107.719 -63.531)"/><path class="d" d="M403.807,287.257a14.229,14.229,0,0,1-2.192.051.478.478,0,0,0-.526.415l-1.4,10.486a4.257,4.257,0,0,1-.9,2.077,4.528,4.528,0,0,0-1.019,3.46v17.813s-.09,2.375,1.735,2.375a26.381,26.381,0,0,0,6.578,0s1.461-.277,1.461-2.468v-17.54a4.29,4.29,0,0,0-.9-3.487,4.366,4.366,0,0,1-.875-2.065l-1.452-10.706A.478.478,0,0,0,403.807,287.257Z" transform="translate(-251.626 38.15)"/><rect class="a" width="8.86" height="14.981" rx="4.43" transform="translate(146.652 342.216)"/><path class="d" d="M511.543,136.412a13.857,13.857,0,0,1-2,.9.481.481,0,0,0-.328.583l2.748,10.222a4.244,4.244,0,0,1-.024,2.261,4.51,4.51,0,0,0,.391,3.587l6.861,16.439s.83,2.225,2.516,1.521a26.2,26.2,0,0,0,6.073-2.543s1.242-.818.4-2.838l-6.755-16.187a4.3,4.3,0,0,0-2.174-2.874,4.374,4.374,0,0,1-1.6-1.566l-5.463-9.32A.481.481,0,0,0,511.543,136.412Z" transform="translate(-329.577 143.683)"/><rect class="a" width="8.86" height="14.981" rx="4.43" transform="translate(183.341 297.739) rotate(-22.65)"/><path class="e" d="M227.149,342.578c-3.232,1.332-4.51,5.475-3.752,8.884s3.04,6.25,5.264,8.953l6.235,7.606c1.723,2.1,3.608,4.32,6.235,5.054,3.842,1.073,7.684-1.374,11.007-3.587a165.814,165.814,0,0,1,31.616-16.463,10.634,10.634,0,0,0,3.091-1.6,5.7,5.7,0,0,0,1.341-6.614,6.622,6.622,0,0,0-5.854-3.626,7.909,7.909,0,0,0-6.229,3.2c-.694.923-1.2,1.978-1.873,2.916-1.7,2.357-4.341,3.815-6.93,5.132a176.976,176.976,0,0,1-19.241,8.418c-1.2.439-2.559.857-3.692.277a4.484,4.484,0,0,1-1.584-1.7,42.111,42.111,0,0,1-4.54-9.675c-.821-2.555-1.485-5.339-3.457-7.155a6.885,6.885,0,0,0-9.954,1.2s-2.456,3.593-.953,5.1S227.149,342.578,227.149,342.578Z" transform="translate(-129.552 0.564)"/><path class="e" d="M785.034,294.607a9.175,9.175,0,0,1,.388,3.7c-.078,1.521-.46,3.307-1.873,3.887-.92.37-2.056.09-2.874.649-.992.673-.944,2.123-.791,3.307.424,3.256.9,6.632,2.676,9.386a19.939,19.939,0,0,0,3.551,3.881c2.607,2.351,5.466,4.648,8.89,5.433a3.718,3.718,0,0,0,1.714.072,3.548,3.548,0,0,0,1.482-.9c1.984-1.822,3.006-4.422,4.329-6.779a25.185,25.185,0,0,0,2.577-5.165,9.019,9.019,0,0,0-2.76-9.1c-.586-.5-1.236-.923-1.8-1.443a9.253,9.253,0,0,1-2.706-5.252,22.987,22.987,0,0,1-.129-6.013,32.716,32.716,0,0,0-8.926.719,17.376,17.376,0,0,0-4.323,1C783.125,292.7,784.67,293.6,785.034,294.607Z" transform="translate(-518.824 36.095)"/><path class="e" d="M619.253,200.2c-4.883-1.675-7.216-8.217-12.326-8.95-.806-.117-1.632-.072-2.423-.259-2.943-.7-4.209-4.1-5.06-7a113.421,113.421,0,0,0-11.935-27.71c-2.246-3.608-5.8-6.572-7.417-10.523a8.169,8.169,0,0,0-1.233-2.643c-.67-.713-2.1-.815-2.468.093a2.1,2.1,0,0,0-.066,1l.352,3.743-6.115-.55a3.572,3.572,0,0,0-1.693.12,2.872,2.872,0,0,0-1.332,1.386c-2.068,3.887.135,8.98,3.785,11.439,4.263,2.871,10.351,3.307,13.183,7.591,1.684,2.549,1.717,5.829,2.826,8.677.529,1.362,1.3,2.613,1.918,3.932a81.186,81.186,0,0,1,2.688,7.874,69.42,69.42,0,0,0,5.165,10.715,27.6,27.6,0,0,0,5.291,7.462,26.021,26.021,0,0,0,5.039,3.307c4.347,2.375,9.473,4.66,14.079,2.838A30.835,30.835,0,0,0,619.253,200.2Z" transform="translate(-369.819 139.349)"/><path class="e" d="M754.976,734.06c-.37,3.923-2.751,7.477-3.307,11.253C748,744.739,744.39,744,740.9,743.158c-.43-.1-.857-.207-1.287-.3,1.978-5.412.256-11.473.779-17.236.051-.553.123-1.106.219-1.654,4.531-1.545,8.622-3.608,13.373-3.006.093.962.189,1.927.283,2.889q.286,2.883.565,5.76A23.359,23.359,0,0,1,754.976,734.06Z" transform="translate(-490.718 -265.089)"/><path class="e" d="M858,743.634c-1.78.541-3.608,1.013-5.517,1.4-.319.066-.64.129-.962.189-1.954.367-3.932.634-5.932.818-.2-4.179-3.006-8.021-3.415-12.311a18.081,18.081,0,0,1,.033-3.2c.036-.421.078-.842.117-1.263l.848-8.65a13.352,13.352,0,0,1,2.035-.1c3.908.093,7.465,1.786,11.337,3.106a27.031,27.031,0,0,1,.3,5.52c-.147,4.7-.9,9.449.842,13.758C857.784,743.144,857.892,743.388,858,743.634Z" transform="translate(-562.406 -264.851)"/><path class="f" d="M717.433,577.524c.526,4.1-1.569,8.027-2.477,12.059a42.669,42.669,0,0,0-.764,8.147l-.475,16.388a14.615,14.615,0,0,0,.409,4.879c1,3.151,4.1,5.279,7.318,6.037s6.587.373,9.867-.06a10.28,10.28,0,0,0,4.618-1.392c1.831-1.278,2.631-3.554,3.322-5.676l1.951-5.992c2.246,5.057,1.3,10.586,2.643,15.952a3.093,3.093,0,0,0,.6,1.362,3.372,3.372,0,0,0,2.354.791c5.893.415,11.866.827,17.663-.3a7.682,7.682,0,0,0,4.356-1.984c1.281-1.392,1.5-3.439,1.488-5.33-.081-6.5-2.429-12.765-2.952-19.241-.225-2.775-.114-5.565-.214-8.349a55.9,55.9,0,0,0-.586-6.253,8.4,8.4,0,0,0-.77-2.736c-.9-1.684-2.775-2.6-4.549-3.307C747.455,576.919,732.3,576.973,717.433,577.524Z" transform="translate(-472.59 -164.683)"/><circle class="e" cx="12.928" cy="12.928" r="12.928" transform="translate(257.431 306.314)"/><path class="d" d="M754.427,326.136c-.959,2.1-2.468,4.209-4.714,4.744a6.451,6.451,0,0,1-5.775-1.981,22.958,22.958,0,0,1-3.572-5.249,9.845,9.845,0,0,0-2.928-3.554c-1.78-1.154-4.077-1.124-6.175-.785a28.32,28.32,0,0,1-6.313.809c-2.655-.177-5.361-1.5-7.865-.619.812,3.632.52,7.624.427,11.346a5.111,5.111,0,0,1-.24,1.7,5.481,5.481,0,0,1-.875,1.407l-2.405,3.1a15.012,15.012,0,0,1,5.712,7.543,18.972,18.972,0,0,1,.334,5.466c-.057,5.385,1.112,10.748.743,16.121-.433,6.292-2.946,12.239-4.242,18.411a48.2,48.2,0,0,0-.619,16.114,151.72,151.72,0,0,0,41.6,7.832c2.516.138,5.234.159,7.3-1.287a7.941,7.941,0,0,0,3.006-5.336,23.694,23.694,0,0,0-.126-6.271q-.929-8.463-1.855-16.926a40.3,40.3,0,0,1,.679-16.779l3.006-14.449a29.737,29.737,0,0,1,1.714-6.037c.7-1.563,1.663-3.006,2.432-4.528a20,20,0,0,0,1.876-5.793,3.839,3.839,0,0,0-.024-1.774,4.105,4.105,0,0,0-2.222-2.062,64.546,64.546,0,0,0-17.786-6.238C755.1,322.826,755.181,324.486,754.427,326.136Z" transform="translate(-472.8 15.876)"/><path class="g" d="M800.833,238.322c1.5-2.88,4.314-4.9,5.947-7.715a11.4,11.4,0,0,0,.367-10.523,38.124,38.124,0,0,1-1.8-3.475c-.5-1.395-.55-2.931-1.13-4.3a7.943,7.943,0,0,0-4.4-3.993,23.581,23.581,0,0,0-5.932-1.326l-6.831-.92a7.514,7.514,0,0,0-2.976,0,2.523,2.523,0,0,0-1.936,2.047c-.093,1.182.944,2.282.7,3.442-.087.409-.328.824-.189,1.221a1.239,1.239,0,0,0,.6.6c1.62.9,3.557.983,5.312,1.572s3.517,2.068,3.34,3.908c-.1.989-.734,2.017-.3,2.9.415.821,1.5.971,2.372,1.227a6.357,6.357,0,0,1,4.374,6.764c-.126.9-.451,1.765-.517,2.67-.219,3.169.28,4.074,2.868,5.917Z" transform="translate(-520.454 95.032)"/><path class="b" d="M880.97,337.246a4.385,4.385,0,0,1-.322,1.753c-.938,2-3.809,1.873-5.712,3.006-2.369,1.413-2.892,4.567-3.109,7.315a32.9,32.9,0,0,0,.222,9.32,12.532,12.532,0,0,0,4.732,7.817c3.118,2.168,7.357,2.243,10.916.923a24.391,24.391,0,0,0,9.112-6.662,29.041,29.041,0,0,0,5.953-8.953,2.851,2.851,0,0,0,.25-1.84c-.28-.9-1.263-1.311-2.062-1.8a9.1,9.1,0,0,1-3.758-5.171,22.455,22.455,0,0,1-.776-6.467c-.024-2.264-.03-4.738-1.473-6.485s-3.944-2.237-6.223-2.219c-1.864,0-7.023.177-8.295,1.8C879.382,330.936,881.045,335.31,880.97,337.246Z" transform="translate(-583.03 9.811)"/><path class="b" d="M845.537,576.556a2.57,2.57,0,0,0,.625,1.227,2.482,2.482,0,0,0,1.013.478c9.867,2.9,20.408,1.741,30.624.559a58.38,58.38,0,0,1-3.193-13.027c-.322-3.683.039-7.516-1.266-10.97-.385-1.022-22.813,3.683-25.026,4.065-1.133.2-2.438.129-3.241,1.028-.968,1.088-1.049,3.68-1.151,5.036A33.09,33.09,0,0,0,845.537,576.556Z" transform="translate(-563.628 -148.872)"/><path class="b" d="M873.958,718.856c-1.8.836-3.665,1.614-5.592,2.312q-1.563.568-3.193,1.064c-1.78.541-3.608,1.013-5.517,1.4q-1.633-4.14-3.268-8.283c-.8-2.032-1.605-4.074-2.276-6.151a38.5,38.5,0,0,1-1.148-4.326,30.862,30.862,0,0,1,.746-14.963c4.167.785,8.241,1.3,12.344,1.891,2.192.3,4.389.655,6.614,1.073q.262,2.174.475,4.347.325,3.355.532,6.71Q874.135,711.388,873.958,718.856Z" transform="translate(-569.582 -243.448)"/><path class="b" d="M929.026,722.138a19.474,19.474,0,0,1-.926,5.2c-.033.12-.063.237-.093.358a4.955,4.955,0,0,1-2.655-1.99,5.685,5.685,0,0,1-.713-1.669q-2.041,1.389-4.119,2.751a112.908,112.908,0,0,1-14.614,8.379c-1.8.836-3.665,1.614-5.592,2.312q-.6-2.1-1.142-4.236a39.245,39.245,0,0,1-.926-4.447,22.584,22.584,0,0,1,1-10.117h0l.135-.391a22.113,22.113,0,0,1,1.969-4.146c.749-1.2,2.231-1,3.743-.6.685.177,1.38.391,2.011.523,3.929.824,8.009-.027,12.026.2a14.374,14.374,0,0,1,5.517,1.4,7.575,7.575,0,0,1,4.1,4.51,6.739,6.739,0,0,1,.2.9A7.969,7.969,0,0,1,929.026,722.138Z" transform="translate(-601.53 -259.756)"/><path class="b" d="M663.213,221.127a139.774,139.774,0,0,0-20.483-15.874,56.255,56.255,0,0,1-5.412-3.857c-1.8-1.5-3.376-3.268-5.291-4.621a8.83,8.83,0,0,0-6.584-1.837c-2.3.445-4.344,2.646-4.008,4.949.3,2.026,2.123,3.415,3.806,4.579a81.689,81.689,0,0,0,9.855,6.142,30.88,30.88,0,0,1,3.5,1.864c2.159,1.455,3.731,3.608,5.363,5.631A78.3,78.3,0,0,0,666.2,237.044c.1.06,3.659-7.615,3.509-8.61C669.382,226.145,664.848,222.715,663.213,221.127Z" transform="translate(-408.046 102.792)"/><path class="d" d="M871.487,605.426c-4.792.3-9.389,1.918-14.076,2.949s-9.78,1.431-14.13-.6l2.646,18.066a8.382,8.382,0,0,1,.081,3.021,11.361,11.361,0,0,0-.68,2.8c.069,1.527,1.5,2.6,2.853,3.307a25.509,25.509,0,0,0,12.747,2.937c-.328,1.323-.737,2.631-1.067,3.953,2.21,2.372,5.823,2.531,8.977,3.283,2.405.568,4.66,1.554,7.017,2.249a29.955,29.955,0,0,0,8.782,1.224,9.128,9.128,0,0,0,5.688-1.551c1.915-1.542,2.51-4.164,2.925-6.587a14.982,14.982,0,0,0,.3-4.089,16.209,16.209,0,0,0-1.365-4.51l-4.119-10c-.749-1.8-1.5-3.635-2.405-5.376C882.716,610.874,877.827,605.032,871.487,605.426Z" transform="translate(-563.22 -184.351)"/><path class="i" d="M808.645,329.02a4.51,4.51,0,0,1,4.72-2.877,8.762,8.762,0,0,1,3.307,1.47l5.742,3.584a25.033,25.033,0,0,1,2.733,1.882c3.959,3.283,5.487,8.68,5.923,13.806s0,10.339,1.019,15.381c-2.423,2.008-5.111,3.707-7.534,5.712a18.932,18.932,0,0,0-3.515,3.454c-.764,1.061-1.308,2.276-2.1,3.307a7.955,7.955,0,0,1-5.27,2.928,5.713,5.713,0,0,1,2.405,3.722c.355,1.476.451,3.006.845,4.483.541,2.005,1.663,3.836,2.032,5.881a37,37,0,0,1,.237,4.287c.469,7.4,6.28,13.878,5.9,21.286a32.279,32.279,0,0,1-7.714-4.056c-1.07-.767-2.1-1.6-3.118-2.423l-7.657-6.208c-3.725-3.006-7.486-6.079-10.447-9.855-1.858-2.369-3.373-4.991-5.237-7.354a16.007,16.007,0,0,0-7.005-5.5c-.418.628-1.16,1.064-1.578,1.693a1.254,1.254,0,0,0-.174.325,1.422,1.422,0,0,0,.1.83,17.274,17.274,0,0,1,.6,3.725l.189,2.261a7.706,7.706,0,0,1,0,1.8,4.753,4.753,0,0,1-4.011,3.734,1.744,1.744,0,0,1-.845-.027,1.808,1.808,0,0,1-1-1.29c-.761-2.568.406-5.276.5-7.949a19.109,19.109,0,0,0-.069-2.032l-.18-2.667c-1.747-.364-2.751-2.24-3.214-3.962-1.251-4.651-2.51-9.464-1.786-14.227a11.874,11.874,0,0,0,.3-3.842c-.3-1.7-1.527-3.088-2.174-4.693-2.1-5.234,2.366-10.916,1.951-16.535-.174-2.36-1.672-4.41-2.574-6.6a18.636,18.636,0,0,0-1.8-3.641,20.154,20.154,0,0,0-3.367-3.424,128.6,128.6,0,0,1-10.577-10.42,7.817,7.817,0,0,1-4.555-2.086,4.189,4.189,0,0,1-1.467-2.835,2.214,2.214,0,0,1,1.876-2.294,7.108,7.108,0,0,1,1.855.421c1.948.427,3.908-1.007,4.777-2.808a13.156,13.156,0,0,0,.854-5.869,5.628,5.628,0,0,1,5.21,1.825,33.013,33.013,0,0,1,3.277,4.961,7.686,7.686,0,0,0,1.635,1.975c1.446,1.148,3.529,1.365,4.792,2.706.64.685,1,1.593,1.581,2.327,1.648,2.065,4.663,2.318,6.915,3.677s3.818,3.842,6.313,4.648c.9.3,1.885.34,2.778.673a6.221,6.221,0,0,1,3.608,5.138,18.626,18.626,0,0,1-.695,6.53L791.8,339c-.256,1.112-.451,2.45.37,3.244a3.343,3.343,0,0,0,1.332.67c2.1.685,4.449,1.359,6.428.388a7.6,7.6,0,0,0,2.339-2.044C805.2,337.8,807.153,333.275,808.645,329.02Z" transform="translate(-496.71 29.635)"/><path class="b" d="M998.3,673.469a8.933,8.933,0,0,1-4.41,6.716,6.314,6.314,0,0,1-4.777.331,4.955,4.955,0,0,1-2.655-1.99,5.684,5.684,0,0,1-.713-1.669.518.518,0,0,0-.021-.093,13.228,13.228,0,0,1-.28-3.238,42.244,42.244,0,0,1,.3-5.048,27.341,27.341,0,0,1,.83-4.173c.559-1.951,1.365-3.83,2.1-5.712.385-.992.755-1.987,1.058-3.006h0c.183-.6.34-1.221.466-1.846l.045-.226c.024-.126.045-.253.066-.379a18,18,0,0,1,1.16-5.036c1.8-3.635,5.315-2.706,5.85.646a5.889,5.889,0,0,1,.069.785c.081,4.242-1.6,8.388-.833,12.645a29.473,29.473,0,0,0,.818,3.073c.271.929.514,1.87.7,2.823A16.043,16.043,0,0,1,998.3,673.469Z" transform="translate(-662.64 -212.579)"/><path class="i" d="M994.116,522.156a33.7,33.7,0,0,0,.349,5.2c.815,4.029,3.908,7.594,3.566,11.689a3.155,3.155,0,0,1-1.326,2.564c-.872.493-2.315.454-2.6,1.446-.081.277-.039.577-.129.851a1.486,1.486,0,0,1-1.5.818,16.506,16.506,0,0,0-1.825-.162c-2.18.183-2.979,3.1-4.922,4.1a3.716,3.716,0,0,1-4.086-.694,5.089,5.089,0,0,1-1.467-4.017,29.818,29.818,0,0,1,.6-3.274,22.712,22.712,0,0,0-.015-5.923,35.814,35.814,0,0,0-1.482-8.553c-.448-1.293-1.043-2.528-1.431-3.839a22.33,22.33,0,0,1-.737-5.739c-.117-4.068.162-8.418,2.592-11.689,1.825-2.453,4.44-4.447,6.506-6.716,1.293-1.422,1.666-1.867,3.094-.661,1.175.989,2.405,2.354,2.537,3.695.361,3.436,0,6.816.643,10.315A79.2,79.2,0,0,1,994.116,522.156Z" transform="translate(-656.798 -108.437)"/><circle class="b" cx="15.333" cy="15.333" r="15.333" transform="translate(290.802 316.836)"/><path class="g" d="M912.167,286.717a1.715,1.715,0,0,1,2.552-.818l4.038,1.687a13.18,13.18,0,0,0,1.876-5.941,30.636,30.636,0,0,1,.229-3.866c.367-1.882,1.482-3.569,1.741-5.469a16.809,16.809,0,0,0-.388-4.606c-.686-4.726.051-9.548-.343-14.308s-2.3-9.858-6.548-12.044a39.787,39.787,0,0,0-3.749-1.437c-2.787-1.061-5.285-2.76-8.039-3.908s-5.989-1.675-8.659-.355-4.224,5.033-2.489,7.456a9.1,9.1,0,0,0,2.207,1.936c1.627,1.163,3.286,2.6,3.662,4.567.674,3.539-3.006,6.314-4.044,9.774a8.309,8.309,0,0,0-.1,4.146c.448,2.05,1.542,3.987,1.5,6.085-.03,2.3-1.407,4.383-1.666,6.671-.093.839-.036,1.69-.141,2.525a13.032,13.032,0,0,1-.971,3.2c-2.405,6.013-4.843,12.089-8.418,17.494a23.171,23.171,0,0,0,11.013-2.573,18.2,18.2,0,0,1-2.757,6.476,20.864,20.864,0,0,0,8.616-3.006,28,28,0,0,1-2.736,6.5c.1-.174,1.993-.6,2.342-.8a4.08,4.08,0,0,0,1.654-1.765c1.022-1.828,1.659-4.032,2.607-5.932a86.389,86.389,0,0,1,7.008-11.683Z" transform="translate(-591.991 74.783)"/><path class="d" d="M575.807,101.257a14.232,14.232,0,0,1-2.192.051.478.478,0,0,0-.526.415l-1.4,10.486a4.258,4.258,0,0,1-.9,2.077,4.528,4.528,0,0,0-1.019,3.46v17.813s-.09,2.375,1.735,2.375a26.381,26.381,0,0,0,6.578,0s1.461-.277,1.461-2.468v-17.54a4.29,4.29,0,0,0-.9-3.487,4.367,4.367,0,0,1-.875-2.065l-1.452-10.706A.478.478,0,0,0,575.807,101.257Z" transform="translate(-371.915 168.23)"/><rect class="a" width="8.86" height="14.981" rx="4.43" transform="translate(198.363 286.297)"/><path class="d" d="M644.807,152.257a14.231,14.231,0,0,1-2.192.051.478.478,0,0,0-.526.415l-1.4,10.486a4.258,4.258,0,0,1-.9,2.077,4.528,4.528,0,0,0-1.019,3.46v17.813s-.09,2.375,1.735,2.375a26.382,26.382,0,0,0,6.578,0s1.461-.277,1.461-2.468v-17.54a4.29,4.29,0,0,0-.9-3.487,4.365,4.365,0,0,1-.875-2.065l-1.452-10.706A.478.478,0,0,0,644.807,152.257Z" transform="translate(-420.171 132.564)"/><rect class="a" width="8.86" height="14.981" rx="4.43" transform="translate(219.108 301.629)"/><g transform="translate(86.619 116.644)"><path class="h" d="M863.452,574.935c-.1.184-.2.363-.31.533a8.461,8.461,0,1,1-11.922-11.5,7.769,7.769,0,0,1,1.019-.592,8.458,8.458,0,0,1,11.51,10.932C863.661,574.522,863.561,574.729,863.452,574.935Z" transform="translate(-619.648 -400.83)"/><path class="j" d="M875.344,588.043c-.1.184-.2.363-.31.533l-10.476-7.284,11.083,6.128C875.553,587.63,875.453,587.837,875.344,588.043Z" transform="translate(-631.541 -413.937)"/><path class="j" d="M858.841,598.2l-11.013-4.247a8.466,8.466,0,0,1-.231-1.474Z" transform="translate(-619.705 -421.741)"/><path class="j" d="M868.793,569.466l-9.019-3.48a7.788,7.788,0,0,1,1.019-.592Z" transform="translate(-628.203 -402.844)"/></g><g transform="translate(109.11 162.135)"><path class="h" d="M871.945,581.558c-.15.282-.306.556-.476.817a12.969,12.969,0,1,1-18.275-17.622,11.893,11.893,0,0,1,1.562-.907A12.966,12.966,0,0,1,872.4,580.6C872.265,580.925,872.112,581.242,871.945,581.558Z" transform="translate(-619.648 -400.83)"/><path class="j" d="M881.093,591.64c-.15.282-.306.556-.476.817l-16.059-11.166,16.989,9.393C881.413,591.008,881.26,591.325,881.093,591.64Z" transform="translate(-628.796 -410.912)"/><path class="j" d="M864.833,601.245l-16.882-6.51a12.98,12.98,0,0,1-.354-2.259Z" transform="translate(-619.692 -416.915)"/><path class="j" d="M873.6,571.636,859.774,566.3a11.929,11.929,0,0,1,1.562-.907Z" transform="translate(-626.229 -402.379)"/></g><g transform="translate(-192.049 130.976)"><path class="h" d="M868.476,578.853c-.128.242-.262.477-.408.7a11.128,11.128,0,1,1-15.68-15.12,10.2,10.2,0,0,1,1.34-.778,11.125,11.125,0,0,1,15.138,14.378C868.751,578.31,868.619,578.582,868.476,578.853Z" transform="translate(-619.648 -400.83)"/><path class="j" d="M878.745,590.171c-.129.242-.263.477-.408.7l-13.779-9.58,14.577,8.06C879.019,589.628,878.888,589.9,878.745,590.171Z" transform="translate(-629.917 -412.148)"/><path class="j" d="M862.385,600,847.9,594.414a11.136,11.136,0,0,1-.3-1.938Z" transform="translate(-619.698 -418.886)"/><path class="j" d="M871.637,570.75l-11.863-4.577a10.243,10.243,0,0,1,1.34-.778Z" transform="translate(-627.035 -402.569)"/></g><g transform="translate(-181.049 184.976)"><path class="h" d="M868.476,578.853c-.128.242-.262.477-.408.7a11.128,11.128,0,1,1-15.68-15.12,10.2,10.2,0,0,1,1.34-.778,11.125,11.125,0,0,1,15.138,14.378C868.751,578.31,868.619,578.582,868.476,578.853Z" transform="translate(-619.648 -400.83)"/><path class="j" d="M878.745,590.171c-.129.242-.263.477-.408.7l-13.779-9.58,14.577,8.06C879.019,589.628,878.888,589.9,878.745,590.171Z" transform="translate(-629.917 -412.148)"/><path class="j" d="M862.385,600,847.9,594.414a11.136,11.136,0,0,1-.3-1.938Z" transform="translate(-619.698 -418.886)"/><path class="j" d="M871.637,570.75l-11.863-4.577a10.243,10.243,0,0,1,1.34-.778Z" transform="translate(-627.035 -402.569)"/></g><g transform="translate(9.47 105.495)"><path class="h" d="M859.965,572.216c-.076.144-.156.283-.242.417a6.61,6.61,0,1,1-9.314-8.981,6.076,6.076,0,0,1,.8-.462,6.608,6.608,0,0,1,8.992,8.54C860.128,571.894,860.051,572.055,859.965,572.216Z" transform="translate(-619.648 -400.83)"/><path class="j" d="M872.985,586.566c-.076.144-.156.283-.242.417l-8.184-5.69,8.658,4.787C873.148,586.243,873.07,586.405,872.985,586.566Z" transform="translate(-632.668 -415.179)"/><path class="j" d="M856.381,596.945l-8.6-3.318a6.614,6.614,0,0,1-.18-1.151Z" transform="translate(-619.711 -423.722)"/><path class="j" d="M866.82,568.576l-7.046-2.718a6.08,6.08,0,0,1,.8-.462Z" transform="translate(-629.013 -403.035)"/></g><g transform="translate(-123.53 119.495)"><path class="h" d="M859.965,572.216c-.076.144-.156.283-.242.417a6.61,6.61,0,1,1-9.314-8.981,6.076,6.076,0,0,1,.8-.462,6.608,6.608,0,0,1,8.992,8.54C860.128,571.894,860.051,572.055,859.965,572.216Z" transform="translate(-619.648 -400.83)"/><path class="j" d="M872.985,586.566c-.076.144-.156.283-.242.417l-8.184-5.69,8.658,4.787C873.148,586.243,873.07,586.405,872.985,586.566Z" transform="translate(-632.668 -415.179)"/><path class="j" d="M856.381,596.945l-8.6-3.318a6.614,6.614,0,0,1-.18-1.151Z" transform="translate(-619.711 -423.722)"/><path class="j" d="M866.82,568.576l-7.046-2.718a6.08,6.08,0,0,1,.8-.462Z" transform="translate(-629.013 -403.035)"/></g></g></svg>