<svg xmlns="http://www.w3.org/2000/svg" width="346.276" height="255" viewBox="0 0 346.276 255"><defs><style>.a{fill:#31d0e9;}.b{fill:#2f2e41;}.c{fill:#a0616a;}.d{fill:#b48bff;}.e{fill:#270c59;}.f{opacity:0.4;}.g{fill:#575a89;}.h{fill:#3f3d56;}.i{fill:#9258fe;}.j{fill:#601ed9;}.k{fill:#fff;}</style></defs><g transform="translate(-36.869 -243)"><rect class="a" width="3.144" height="124.171" transform="translate(336.649 367.209)"/><path class="a" d="M976.706,322.237c.2,43.42-30.348,78.759-30.348,78.759s-30.872-35.057-31.072-78.476,30.348-78.759,30.348-78.759S976.5,278.818,976.706,322.237Z" transform="translate(-607.901 60.795)"/><rect class="a" width="1.617" height="63.864" transform="translate(275.321 425.633)"/><path class="a" d="M799.524,562.011c.1,22.332-15.609,40.508-15.609,40.508s-15.878-18.031-15.981-40.362,15.609-40.508,15.609-40.508S799.421,539.68,799.524,562.011Z" transform="translate(-507.665 -128.24)"/><ellipse class="a" cx="43.805" cy="6.715" rx="43.805" ry="6.715" transform="translate(265.001 484.571)"/><path class="b" d="M870.107,324.311c-3.711-6.271-11.054-6.563-11.054-6.563s-7.155-.915-11.744,8.636c-4.278,8.9-10.182,17.5-.951,19.581l1.667-5.19,1.033,5.576a36.12,36.12,0,0,0,3.95.068c9.886-.319,19.3.093,19-3.454C871.6,338.247,873.678,330.344,870.107,324.311Z" transform="translate(-557.688 10.482)"/><path class="c" d="M889.234,369.816s4.8,6.715,1.918,12.15,6.715,11.191,6.715,11.191L904.9,377.81s-8.313-5.436-6.075-10.552Z" transform="translate(-590.18 -23.214)"/><circle class="c" cx="8.313" cy="8.313" r="8.313" transform="translate(293.938 332.853)"/><path class="c" d="M809.255,350.23l6.947-8.964s2.446-9.4,5.989-8.919-1.4,11.268-1.4,11.268l-6.9,9.922Z" transform="translate(-535.774 0.546)"/><path class="c" d="M871.469,707.974l2.238,11.831,4.8,1.279-1.279-14.069Z" transform="translate(-562.823 -237.952)"/><path class="c" d="M1022.47,664.573l8.633,11.83,3.517,1.6,2.878-4.8-8.633-11.191Z" transform="translate(-665.542 -207.34)"/><path class="d" d="M877.508,405.048l-5.334-7.021s-10.334,1.905-11.293,2.865,2.558,18.545,2.558,18.545.639,4.8,3.517,7.354l2.878,1.918,23.661-4.8.89-10.528a27.629,27.629,0,0,0-7.285-21.127h0l-4.117.563Z" transform="translate(-570.781 -40.221)"/><path class="d" d="M815.572,391.327l-1.6-.639-7.354-.639s-2.558-.639-1.918-1.918,1.279-1.6,0-1.918-1.6-.639-1.279-1.6a12.725,12.725,0,0,1,2.238-2.878l-5.436-4.476s-.294.208-.77.593c-2.7,2.185-11.238,10.069-4.986,17.952,7.354,9.273,15.987,14.708,23.021,12.79Z" transform="translate(-524.192 -30.017)"/><path class="e" d="M882.736,494.455v4.476s-2.878,5.436-1.919,10.552,1.279,7.674,1.279,7.674a43.659,43.659,0,0,0,2.238,12.79c2.238,6.395-5.116,48.281,4.157,48.921s14.388,1.279,17.266-1.918-4.8-58.193-4.8-58.193,26.219,54.676,31.655,52.438S951.8,563.84,950.2,560.962s-41.886-66.826-41.886-66.826l-1.279-2.878Z" transform="translate(-584.322 -107.566)"/><path class="e" d="M918.158,791.2s-5.116-.32-5.116,1.279-2.558,7.034-2.558,7.034-1.918,6.395,3.2,5.755S922,798.876,922,798.876l-1.279-6.075Z" transform="translate(-604.396 -311.588)"/><path class="e" d="M1093.352,749.422s-4.476-2.878-4.157-.959.64,7.034,2.878,7.354,8.953,2.238,9.273,2.878,7.993,3.2,7.993-.959-4.8-7.354-4.8-7.354l-5.436-4.157s-3.517-.32-4.157,1.919S1093.352,749.422,1093.352,749.422Z" transform="translate(-726.194 -280.998)"/><circle class="b" cx="5.309" cy="5.309" r="5.309" transform="translate(296.955 322.952)"/><path class="b" d="M878.544,302.233a5.309,5.309,0,0,1,4.75-5.279,5.367,5.367,0,0,0-.558-.03,5.309,5.309,0,1,0,0,10.618,5.367,5.367,0,0,0,.559-.03A5.309,5.309,0,0,1,878.544,302.233Z" transform="translate(-582.148 24.631)"/><path class="b" d="M836.982,277.107l-7.254-3.8-10.018,1.555-2.073,9.154,5.159-.2,1.441-3.363v3.307l2.38-.091L828,278.316l.864,5.7,8.463-.173Z" transform="translate(-526.204 57.081)"/><path class="c" d="M881.529,491.334l-11.187.3s-9.546,1.857-9.01-2,9.848-2.505,9.848-2.505l10.193-1.555Z" transform="translate(-571.185 -103.704)"/><path class="d" d="M926.963,390.5a2.387,2.387,0,0,1,2.633,1.64c2.19,6.9,8.937,30,2.234,33.165-7.9,3.732-13.658,3.568-13.658,3.568l-3.084-7.593,2.807-2.635,3-19.273,1.436-8.17Z" transform="translate(-607.768 -39.009)"/><path class="f" d="M871.439,379.515,870.16,392.3l-11.191,4.8,12.47-2.878Z" transform="translate(-554.32 -15.168)"/><path class="e" d="M746.864,298.7h0a14.977,14.977,0,0,1,8.746,6.353l1.046,1.62.053.067,18.348,5.369a1.337,1.337,0,0,1,.915,1.636l-1.424,5.223a1.337,1.337,0,0,1-1.65.936l-18.353-5.13h0l-1.843.7a16.472,16.472,0,0,1-10.59.36h0Z" transform="translate(-490.098 23.419)"/><ellipse class="g" cx="1.12" cy="2.101" rx="1.12" ry="2.101" transform="translate(271.742 337.166) rotate(-73.69)"/><circle class="h" cx="0.77" cy="0.77" r="0.77" transform="translate(274.382 336.279)"/><ellipse class="i" cx="8.982" cy="4.062" rx="8.982" ry="4.062" transform="matrix(0.308, -0.951, 0.951, 0.308, 247.803, 338.056)"/><path class="f" d="M746.612,308.475c1.474-4.547,1.073-8.784-.867-9.706a1.886,1.886,0,0,1,.344.076c2.134.692,2.623,5.078,1.093,9.8s-4.5,7.983-6.634,7.291a1.872,1.872,0,0,1-.226-.091C742.421,316.109,745.162,312.945,746.612,308.475Z" transform="translate(-488.882 23.376)"/><path class="j" d="M-3354.5-2869.006a111.044,111.044,0,0,1-22.964-2.38,106.116,106.116,0,0,1-20.606-6.613,102.8,102.8,0,0,1-17.855-10.056,97.454,97.454,0,0,1-14.712-12.709l31.647-25.426-36.477,19.885c-10.681-13.307-16.562-28.475-16.562-42.711a5.519,5.519,0,0,0,.091-1.629,103.344,103.344,0,0,1,6.556-35.72l65.412-21.08-60.217,9.435c.229-.437.431-.817.617-1.163a80.532,80.532,0,0,1,14.706-19.544,80.516,80.516,0,0,1,18.232-13.293,85.024,85.024,0,0,1,19.884-7.581,83.018,83.018,0,0,1,19.663-2.407,85.407,85.407,0,0,1,27.372,4.916l-55.552,17.255,74.034-9.254c20.082,10.452,36.358,24.318,44.18,30.981,1.528,1.3,2.734,2.33,3.518,2.942l5.834,4.525-48.763,43.984,59.375-35.752,25.2,19.545-5.435,17.266c-.141.2-3.505,4.938-9.431,11.967a266.681,266.681,0,0,1-25.484,26.327c-12.427,11.117-24.983,19.975-37.32,26.327a115.7,115.7,0,0,1-21.781,8.676A86.489,86.489,0,0,1-3354.5-2869.006Z" transform="translate(3488.899 3285)"/><g transform="translate(74.679 305.563) rotate(-14)"><path class="k" d="M1435.776,304.517h-44.8a2.489,2.489,0,0,1-2.489-2.489V259.713h-20.327a2.488,2.488,0,0,1-1.744-4.265l22.817-22.4a2.489,2.489,0,0,1,1.744-.713h11.2a2.489,2.489,0,0,1,1.76.729l9.441,9.441,9.441-9.441a2.49,2.49,0,0,1,1.76-.729h11.2a2.49,2.49,0,0,1,1.76.729l22.4,22.4a2.489,2.489,0,0,1-1.757,4.249l-22.4.017h0a2.489,2.489,0,0,1,0-4.978l16.4-.012-17.427-17.429h-9.14l-10.472,10.473a2.488,2.488,0,0,1-3.519,0l-10.472-10.473h-9.154l-17.745,17.424h16.728a2.49,2.49,0,0,1,2.489,2.489v42.315h39.826v-30.26a2.489,2.489,0,1,1,4.978,0v32.749A2.489,2.489,0,0,1,1435.776,304.517Z" transform="translate(-1365.667 -232.333)"/></g></g></svg>