<svg xmlns="http://www.w3.org/2000/svg" width="336.476" height="255" viewBox="0 0 336.476 255"><defs><style>.a,.m{fill:#601ed9;}.b{fill:#9258fe;}.c{fill:#a1616a;}.d{fill:#270c59;}.e{fill:#3f3d56;}.f,.j,.l{opacity:0.1;}.g{fill:#464353;}.h,.j{fill:#b48bff;}.i{fill:#454b69;}.k{fill:#fff;}.m{opacity:0.5;}.n{fill:#31d0e9;}</style></defs><g transform="translate(-33.274 -243)"><g transform="translate(-2619.33 -4920.418)"><path class="a" d="M228.617,244.616,44.332,241.062c-.144-.067-3.558-1.663-8.378-4.452-2.874-1.663-5.675-3.417-8.328-5.214a112.98,112.98,0,0,1-9.18-6.893c-7.068-5.925-12.18-11.943-15.2-17.885A28.9,28.9,0,0,1,.092,196.1a23.911,23.911,0,0,1,.158-5.554,25.278,25.278,0,0,1,1.554-5.71,64.575,64.575,0,0,1,4.07-8.3c1.473-2.557,3.171-5.181,5.189-8.022,3.751-5.278,8.077-10.527,12.26-15.6,13.8-16.746,28.072-34.063,24.761-55.816l31.2-33.3L45.6,83.071a83.007,83.007,0,0,1,.077-18.993,79.483,79.483,0,0,1,3.531-15.7l64.973-19.384L53.068,39A61.89,61.89,0,0,1,57.9,30.8a26.96,26.96,0,0,1,3.693-4.368,77.588,77.588,0,0,1,8.091-5.707,152.266,152.266,0,0,1,16.266-8.911A135.267,135.267,0,0,1,107.984,3.6a97.246,97.246,0,0,1,25.4-3.6,73.85,73.85,0,0,1,16.336,1.779c6.469,1.47,13.48,4.575,21.433,9.493l-60.767,34.79,72.36-26.851c8.65,6.423,17.575,14.022,26.206,21.372l0,0c5.71,4.862,11.615,9.89,17.377,14.523,6.462,5.2,12.062,9.338,17.119,12.662a93.484,93.484,0,0,0,16.616,8.952,51.867,51.867,0,0,0,8.044,2.507,36.806,36.806,0,0,0,7.827.887c.664,0,1.33-.021,1.981-.062.779-.049,1.57-.075,2.351-.075a38.428,38.428,0,0,1,12.909,2.268,44.98,44.98,0,0,1,11.731,6.338,53.984,53.984,0,0,1,9.969,9.712,61.179,61.179,0,0,1,7.622,12.388,63.909,63.909,0,0,1,.554,52.569,72.471,72.471,0,0,1-11.238,17.88l-.429.505-75.363,5.706,66.993,3.589a247.729,247.729,0,0,1-23.591,21.75l-100.3,7.849,87.425,1.925c-4.882,3.474-9.912,6.8-14.952,9.884-4.034,2.469-8.086,4.792-12.041,6.9-6.682,3.567-10.781,5.3-10.952,5.371Z" transform="translate(2660.638 5163.768)"/><path class="b" d="M477.6,761.785s54.934-53.329,73.95-35.389,99.306,22.713,106.7,21.655,50.708-3.168,75.007-.529,38.172-7.393,47.151,14.262Z" transform="translate(2175 4656.634)"/><path class="c" d="M707.523,746.9a10.838,10.838,0,0,1-.793,2.735,19.6,19.6,0,0,0,4.836,1.117.455.455,0,0,0,.31-.046c.123-.1.1-.287.087-.456a6.057,6.057,0,0,1,.5-2.625q1.367-3.806,2.7-7.621a7.1,7.1,0,0,0-6.172.912C707.765,742.02,707.819,745.361,707.523,746.9Z" transform="translate(2050.311 4647.409)"/><path class="c" d="M757.992,755.342a.876.876,0,0,0-.082.337c0,.406.538.547.944.583a25.836,25.836,0,0,1,5.752,1.2c.228-.675-.091-1.4-.1-2.106a7.953,7.953,0,0,1,.939-2.776,12.727,12.727,0,0,0,.533-5.155c-1.559.1-5.278-.615-6.149,1a13.542,13.542,0,0,0-.675,3.282,25.388,25.388,0,0,1-1.162,3.637Z" transform="translate(2022.459 4643.222)"/><path class="d" d="M720.279,611.184l-4.1.242a1.176,1.176,0,0,0-.748.219,1.122,1.122,0,0,0-.278.716c-.547,4.1.415,8.291-.1,12.393-.205,1.614-.634,3.191-.966,4.777-.561,2.648-.866,5.342-1.171,8.031a18.321,18.321,0,0,0-.155,4.025c.118,1.13.456,2.234.5,3.368a11.716,11.716,0,0,1-.693,3.938,42.857,42.857,0,0,1-2.552,6.322,31.4,31.4,0,0,0-2.42,5.378c-.848,3.017-.456,6.3-1.463,9.271a4.638,4.638,0,0,0-.456,2.238,2.558,2.558,0,0,0,2.11,1.864,7.494,7.494,0,0,0,2.958-.223,8.246,8.246,0,0,0,4.426-1.923,8.1,8.1,0,0,0,1.477-2.653c.743-1.823,1.481-3.674,2.161-5.533a21.026,21.026,0,0,1,1.048-2.575c.374-.711.839-1.367,1.235-2.078a21.122,21.122,0,0,0,1.586-3.829c2.926-8.979,3.82-18.688,8.241-27.029.21-.4.237-.912.456-1.285a13.282,13.282,0,0,1,.611,4.2,88.247,88.247,0,0,1-.232,9.7c-.182,2.352-.456,4.7-.51,7.06,0,1.076,0,2.156.023,3.236v.88c.036,1.536.073,3.072.223,4.6.643,6.308-1.345,12.443-.629,18.743a1.089,1.089,0,0,0,.21.62c.305.328.848.15,1.263-.027a13.565,13.565,0,0,1,4.312-1.076,2.908,2.908,0,0,0,1.308-.292,2.674,2.674,0,0,0,.962-2q1.49-9.2,2.976-18.405a43.992,43.992,0,0,0,.565-4.435c.114-1.933-.027-3.874.16-5.8.26-2.735,1.367-5.333,2.2-7.931.428-1.367.861-2.712,1.253-4.079s.752-2.785,1.071-4.189a20.245,20.245,0,0,0,.6-7.439,8.279,8.279,0,0,0-3.879-6.112,14.106,14.106,0,0,0-5.315-1.212c-5.192-.57-10.365-1.823-15.566-1.367C722.07,611.586,721.208,611.13,720.279,611.184Z" transform="translate(2050.901 4717.327)"/><path class="d" d="M701.939,775.2a5.845,5.845,0,0,0,.647-1.367l1.682-4.558a39.613,39.613,0,0,0,1.367-4.162,19.5,19.5,0,0,0,.556-5.16,19.217,19.217,0,0,1-5.064-.711,7.823,7.823,0,0,0-1.923-.406,3.346,3.346,0,0,0-3.245,3.542,5.094,5.094,0,0,1,.073.83,2.6,2.6,0,0,1-.237.8l-1.8,4.376a9.6,9.6,0,0,0-.912,3.373C692.96,775.851,699.355,778.927,701.939,775.2Z" transform="translate(2057.736 4636.971)"/><path class="d" d="M750.428,777.475a7.822,7.822,0,0,0,0,2.065,4.6,4.6,0,0,0,4.175,3.528,5.985,5.985,0,0,0,5.064-2.493,5.378,5.378,0,0,0,.843-1.618,8.4,8.4,0,0,0,.283-1.719l.725-7.671c.1-1.076.542-2.63,0-3.646-.456-.861-1.563-1.144-2.416-1.468a9.5,9.5,0,0,0-4.476-.67c-2.657.223-2.63,2.935-3.031,5.1Q750.811,773.158,750.428,777.475Z" transform="translate(2026.568 4634.303)"/><path class="e" d="M734.154,446.677c-1.226,1.718-3.013,2.981-4.216,4.718a8.865,8.865,0,0,0-1.554,5.4,10.119,10.119,0,0,1,0,2.945,5.237,5.237,0,0,1-1.176,1.951,16.382,16.382,0,0,1-7.489,4.977c-.351.109-.789.346-.7.7a.725.725,0,0,0,.324.369l5.925,4.244a75.318,75.318,0,0,0,10.821,6.878,38.442,38.442,0,0,0,22.107,3.478,11.528,11.528,0,0,1-1.755-5.014c-.228-2.142.155-4.3.114-6.459a16.691,16.691,0,0,0-1.367-6.381c-.51-1.171-1.158-2.279-1.55-3.5a18.084,18.084,0,0,1-.656-4.558l-.305-5.1a10.289,10.289,0,0,0-.424-2.794,6.922,6.922,0,0,0-1.085-1.924c-2.17-2.835-5.47-4.048-8.925-4.344a9.7,9.7,0,0,0-4.745.406C735.831,443.491,735.157,445.282,734.154,446.677Z" transform="translate(2043.63 4809.302)"/><path class="c" d="M741.243,489.739a3.386,3.386,0,0,1-2.138,1.987,10.082,10.082,0,0,1-2.981.456l-2.174.1a.948.948,0,0,0-.67.2.784.784,0,0,0-.191.488,4.826,4.826,0,0,0,1.212,3.191c2.161,3.027,4.75,5.9,8.127,7.448a13.405,13.405,0,0,0,15.452-3.118,1.367,1.367,0,0,0,.428-.761,1.281,1.281,0,0,0-.656-1.067c-.72-.533-1.568-.88-2.279-1.408a6.837,6.837,0,0,1-2.475-3.742,11.26,11.26,0,0,1-.205-4.535c-2.7-.77-5.647-.16-8.355-.912-.634-.173-1.823-.839-2.489-.456S741.453,489.092,741.243,489.739Z" transform="translate(2035.976 4784.636)"/><path class="f" d="M741.243,489.739a3.386,3.386,0,0,1-2.138,1.987,10.082,10.082,0,0,1-2.981.456l-2.174.1a.948.948,0,0,0-.67.2.784.784,0,0,0-.191.488,4.826,4.826,0,0,0,1.212,3.191c2.161,3.027,4.75,5.9,8.127,7.448a13.405,13.405,0,0,0,15.452-3.118,1.367,1.367,0,0,0,.428-.761,1.281,1.281,0,0,0-.656-1.067c-.72-.533-1.568-.88-2.279-1.408a6.837,6.837,0,0,1-2.475-3.742,11.26,11.26,0,0,1-.205-4.535c-2.7-.77-5.647-.16-8.355-.912-.634-.173-1.823-.839-2.489-.456S741.453,489.092,741.243,489.739Z" transform="translate(2035.976 4784.636)"/><circle class="c" cx="9.102" cy="9.102" r="9.102" transform="translate(2774.986 5260.683)"/><path class="g" d="M751.215,499.059a29.86,29.86,0,0,1-5.224,1.7,10.055,10.055,0,0,1-5.424-.3,18.882,18.882,0,0,1-3.359-1.914,14.345,14.345,0,0,0-6.181-2.5,4.164,4.164,0,0,0-3.008.647,4.1,4.1,0,0,0-1.326,2.735,18.874,18.874,0,0,0,.675,6.5c1.746,8.136,2.735,16.646.78,24.741-1.026,4.3.082,8.77.232,13.186a15.783,15.783,0,0,0,.6,4.49,5.422,5.422,0,0,0,2.84,3.368,8.88,8.88,0,0,0,4.175.264,9.876,9.876,0,0,1,4.936.547c1.076.5,2.083,1.367,3.259,1.263.6-.055,1.149-.365,1.746-.456a5.9,5.9,0,0,1,3.437.994,21.268,21.268,0,0,0,8.66,2.192c1.536-3.615.743-7.68.912-11.6.068-1.468.287-2.926.374-4.394a49.146,49.146,0,0,0-.068-5.31l-.556-11.942c-.16-3.25,1.5-6.431,1.367-9.677a29.3,29.3,0,0,0-.624-4.494c-.1-.5-.205-1-.346-1.486-1-3.423-3.888-5.925-6.646-8.173A1.336,1.336,0,0,0,751.215,499.059Z" transform="translate(2039.496 4780.002)"/><path class="h" d="M723.439,550.827c.036,3.191-1.112,6.276-2.238,9.271a3.949,3.949,0,0,1-1.655,2.347,3.434,3.434,0,0,1-2.735-.187,18.407,18.407,0,0,1-2.338-1.08,3.235,3.235,0,0,0-2.539-.652c-1.044.356-1.367,1.655-1.509,2.735a28.92,28.92,0,0,1-4.262-.26.8.8,0,0,1-.374-.119.788.788,0,0,1-.237-.51c-.146-.761-.3-1.518-.456-2.279-.046-.237-.219-.552-.456-.456.191-2.954-.424-5.894-.647-8.843a23.457,23.457,0,0,1,.046-4.49,43.531,43.531,0,0,1,.857-4.435c.7-3.127,2.051-6.3,2.129-9.476a10.707,10.707,0,0,0-.123-1.905q-.966-5.966-1.923-11.942c-.164-.994-.324-2-.556-2.976-.173-.729-.337-1.436-.524-2.138-.114-.428-.237-.852-.378-1.281l3.646-10.028a18.425,18.425,0,0,1,1-2.4,9.4,9.4,0,0,1,4.079-3.979,3.68,3.68,0,0,0,1.367-.912c.178-.232.287-.515.456-.757.643-.912,1.96-.985,3.058-.784a4.169,4.169,0,0,1,2.662,1.367,5.363,5.363,0,0,1,.583,1.185q1.094,2.653,2.2,5.3a2.009,2.009,0,0,1,.912,1.823c0,1.313-.187,2.621-.132,3.934a.992.992,0,0,0,.027.283c.164,1.18,1,2.174,1.281,3.359,1.085,4.535-.5,9.2-1.427,13.788-.036.182-.073.36-.1.542a41.43,41.43,0,0,0-.729,8.081,23.112,23.112,0,0,0,.237,3.364c.15.98.392,1.946.5,2.935a27.146,27.146,0,0,1,0,4.13C723.01,545.849,723.411,548.333,723.439,550.827Z" transform="translate(2052.058 4781.531)"/><path class="i" d="M751.608,530.361a3.924,3.924,0,0,1,.52,1.823,1.213,1.213,0,0,1-.273.757,1.139,1.139,0,0,1-1.044.287,2.866,2.866,0,0,1-1.016-.456,2.356,2.356,0,0,1-.971-.975,2.539,2.539,0,0,1-.146-.611l-.242-1.541a1.965,1.965,0,0,1,0-.912c.205-.634,1.126-1.755,1.823-1.208S751.267,529.631,751.608,530.361Z" transform="translate(2027.644 4762.93)"/><path class="i" d="M793.238,527.8c-.269-.7-1.071-1-1.728-1.367a8.077,8.077,0,0,1-3.036-3.478c-.72-1.386-1.258-2.862-2.037-4.212a1.641,1.641,0,0,0-.52-.62.629.629,0,0,0-.757.046.821.821,0,0,0-.169.433,9.782,9.782,0,0,0,.278,3.031,11.814,11.814,0,0,1-2.89,9.572c-.943,1.044-2.115,1.96-2.621,3.273a7.707,7.707,0,0,0-.273,3.191l.314,5.816a54.971,54.971,0,0,1-1.983,17.544c-.912,3.282-2.452,6.6-1.823,9.941.237,1.281.793,2.552.565,3.838a1.308,1.308,0,0,0,0,.747,1.089,1.089,0,0,0,.456.424l3.031,1.978,2.735-8.1a14.976,14.976,0,0,0,.606-2.12,16.2,16.2,0,0,0,.178-2.489,105.085,105.085,0,0,1,2.812-21.623,16.6,16.6,0,0,1,.912-2.99,18.32,18.32,0,0,1,3.423-4.681c.032-.67-.055-1.34,0-2.015a12.9,12.9,0,0,1,.5-3.473A4.176,4.176,0,0,1,793.238,527.8Z" transform="translate(2012.697 4768.024)"/><path class="h" d="M793.224,556.08a41.162,41.162,0,0,0,.087,5.757l.456,7.63a10.969,10.969,0,0,0,.456,3.013c.365,1.039,1.039,1.951,1.39,3,.119.356.2.729.319,1.089a12.791,12.791,0,0,0,.547,1.276,23.617,23.617,0,0,1,1.655,8.916c.087,3.04-.068,6.09.242,9.116a5.5,5.5,0,0,1-2.42.119,3.388,3.388,0,0,0-.912-.123,2.873,2.873,0,0,0-.766.219,7.89,7.89,0,0,1-6.623-.593,13.219,13.219,0,0,1-1.691-1.24,5.18,5.18,0,0,1-1.158-1.226,4.557,4.557,0,0,1-.524-2.215c-.1-3.095.912-6.1,1.6-9.116a84.732,84.732,0,0,0,1.367-8.838c.506-4.344.369-8.811,1.367-13.072a3.6,3.6,0,0,1,.729-1.691,3.647,3.647,0,0,1,1.176-.757C791.41,556.91,792.317,556.5,793.224,556.08Z" transform="translate(2008.112 4747.312)"/><path class="j" d="M793.238,527.8c-.269-.7-1.071-1-1.728-1.367a8.077,8.077,0,0,1-3.036-3.478c-.72-1.386-1.258-2.862-2.037-4.212a1.641,1.641,0,0,0-.52-.62.629.629,0,0,0-.757.046.821.821,0,0,0-.169.433,9.782,9.782,0,0,0,.278,3.031,11.814,11.814,0,0,1-2.89,9.572c-.943,1.044-2.115,1.96-2.621,3.273a7.707,7.707,0,0,0-.273,3.191l.314,5.816a54.971,54.971,0,0,1-1.983,17.544c-.912,3.282-2.452,6.6-1.823,9.941.237,1.281.793,2.552.565,3.838a1.308,1.308,0,0,0,0,.747,1.089,1.089,0,0,0,.456.424l3.031,1.978,2.735-8.1a14.976,14.976,0,0,0,.606-2.12,16.2,16.2,0,0,0,.178-2.489,105.085,105.085,0,0,1,2.812-21.623,16.6,16.6,0,0,1,.912-2.99,18.32,18.32,0,0,1,3.423-4.681c.032-.67-.055-1.34,0-2.015a12.9,12.9,0,0,1,.5-3.473A4.176,4.176,0,0,1,793.238,527.8Z" transform="translate(2012.697 4768.024)"/><path class="c" d="M794.964,640.4a1.627,1.627,0,0,1-.593.857c-.305.173-.8.027-.83-.324-.51-.068-.912.533-1.4.574s-.948-.456-1.431-.346c-.31.082-.6.41-.884.264-.118-.059-.191-.187-.315-.232-.2-.064-.383.119-.583.164-.424.1-.734-.424-.748-.857a2.939,2.939,0,0,0-.087-1.285.273.273,0,0,0-.132-.146c-.137-.064-.287.064-.378.187-.337.456-.433,1.089-.775,1.563s-1.158.7-1.468.205a1.162,1.162,0,0,1-.064-.825,3.951,3.951,0,0,1,1.709-2.967,4.646,4.646,0,0,1,3.008-.073q2.092.456,4.18.944c.369.087,1.254.132,1.413.561S795.11,640.04,794.964,640.4Z" transform="translate(2007.594 4703.303)"/><path class="e" d="M754.655,459.684c.456,2.457,1.86,4.622,2.985,6.86s2.024,4.781,1.413,7.206a25.058,25.058,0,0,1-.912,2.457,23.2,23.2,0,0,0-.939,4.367,22.95,22.95,0,0,0-.36,6.085,7.685,7.685,0,0,0,2.735,5.287l-.128-.912a10.134,10.134,0,0,1,1.928,1.326,12.244,12.244,0,0,0,1.367-3.715l3.095,2.4c1.367,1.048,2.9,2.151,4.595,1.942l-1.367-3.15c-.378-.875-.757-1.746-1.2-2.589a8.136,8.136,0,0,1-.738-1.577,7.119,7.119,0,0,1-.2-1.459,101.706,101.706,0,0,0-4.476-23.7,19.759,19.759,0,0,0-2.156-5.014,6.28,6.28,0,0,0-1.8-1.855,8.71,8.71,0,0,0-3.87-1.016,11.934,11.934,0,0,0-2.821-.064,8.659,8.659,0,0,0-2.735.939,14.586,14.586,0,0,0-6.308,6.258,12.4,12.4,0,0,0-1.427,6.331c.178,2.325,2.393,1.267,3.888.688C748.925,465.336,752.481,463.094,754.655,459.684Z" transform="translate(2031.484 4803.674)"/><path class="f" d="M751.608,530.361a3.924,3.924,0,0,1,.52,1.823,1.213,1.213,0,0,1-.273.757,1.139,1.139,0,0,1-1.044.287,2.866,2.866,0,0,1-1.016-.456,2.356,2.356,0,0,1-.971-.975,2.539,2.539,0,0,1-.146-.611l-.242-1.541a1.965,1.965,0,0,1,0-.912c.205-.634,1.126-1.755,1.823-1.208S751.267,529.631,751.608,530.361Z" transform="translate(2027.644 4762.93)"/><path class="d" d="M740.669,407.39l-1.709,12.8,7.512-.456,2.443-12.348Z" transform="translate(2041.432 4869.961)"/><circle class="k" cx="0.57" cy="0.57" r="0.57" transform="translate(2785.228 5280.592)"/><g class="l" transform="translate(2772.79 5261.138)"><path d="M759.226,478.125c.077-.223.146-.456.205-.675.606-2.429-.292-4.973-1.417-7.211s-2.512-4.4-2.981-6.86c-2.174,3.409-5.72,5.652-9.426,7.092-1.495.579-3.715,1.632-3.893-.688a9.321,9.321,0,0,1,0-1.554,10.8,10.8,0,0,0-.41,3.715c.178,2.325,2.393,1.267,3.888.688,3.71-1.436,7.252-3.678,9.426-7.088.456,2.457,1.86,4.622,2.985,6.837A12.559,12.559,0,0,1,759.226,478.125Z" transform="translate(-741.282 -463.38)"/><path d="M784.674,518.911q-1.55-1.194-3.095-2.4a12.207,12.207,0,0,1-1.367,3.719,10.03,10.03,0,0,0-1.928-1.331l.128.912a7.758,7.758,0,0,1-2.735-5.287,22.575,22.575,0,0,1,.355-6.085c.032-.219.068-.456.1-.656-.214.912-.356,1.873-.5,2.817a22.964,22.964,0,0,0-.36,6.085,7.685,7.685,0,0,0,2.735,5.287l-.128-.912a10.37,10.37,0,0,1,1.928,1.331,12.306,12.306,0,0,0,1.367-3.715q1.55,1.2,3.095,2.4c1.367,1.044,2.9,2.151,4.594,1.942l-.984-2.279A9.135,9.135,0,0,1,784.674,518.911Z" transform="translate(-759.733 -487.542)"/></g><path class="c" d="M747.029,509.323a10.752,10.752,0,0,1,2.548-2.434.766.766,0,0,1,.524-.146c.146.032.269.141.419.169a.834.834,0,0,0,.492-.119l2.106-1.012a2.233,2.233,0,0,1,1.007-.292.738.738,0,0,1,.734.634c0,.392-.387.656-.734.852a19.693,19.693,0,0,0-2.954,2.06c-.456.406-.975,1.076-.62,1.6a1.367,1.367,0,0,0,1.158.387,9.3,9.3,0,0,0,2.279-.173c.6-.15,1.167-.419,1.773-.561a8.72,8.72,0,0,1,1.691-.169,1.367,1.367,0,0,1,.953.205c.251.214.228.729-.1.793a1.5,1.5,0,0,1-.542,1.955c-.6.456-1.367.643-1.992,1.03a2.567,2.567,0,0,1,2.238-.082.456.456,0,0,1,.205.255c.041.214-.187.378-.387.456-2.99,1.395-6.532.912-9.663,1.946a10.278,10.278,0,0,0-3.592,2.074c.488-.456-2.516-3.646-2.256-4.558.21-.747,1.718-1.7,2.279-2.279Q745.858,510.686,747.029,509.323Z" transform="translate(2030.951 4774.842)"/><path class="f" d="M726.266,533.081a2.435,2.435,0,0,0,.16,1.222,4.458,4.458,0,0,1-.611,3.049,13.218,13.218,0,0,1-2.133,2.913,28.117,28.117,0,0,1-3.218,2.853,69.275,69.275,0,0,1-7.019,4.841,5.843,5.843,0,0,1-2.028.889,6.077,6.077,0,0,1-1.7-.027,9.816,9.816,0,0,1-2.229-.456,10.708,10.708,0,0,0-.123-1.905q-.966-5.966-1.923-11.942c-.164-.994-.324-2-.556-2.976-.173-.729-.337-1.436-.524-2.138v-.05c.456-1.149,1.791-1.878,1.924-3.1,1.928-.182,3.738-.4,5.67-.574a12.763,12.763,0,0,1-.369,5.4.706.706,0,0,0,.706-.433c.141-.26.187-.561.305-.834.456-1.039,1.791-1.285,2.735-1.887,1.659-1.03,2.375-3.264,4.162-4.038a.652.652,0,0,1,.419-.073c.392.1.456.793.88.766a.6.6,0,0,0,.337-.191c.729-.661,1.641-1.208,2.366-1.864.1.2.2.392.292.588q1.522,3.081,3.04,6.167a4.387,4.387,0,0,0,1.627,2.078C728.148,532.265,726.553,532.156,726.266,533.081Z" transform="translate(2051.601 4765.575)"/><path class="h" d="M703.808,524.143c-.128,1.226-1.472,1.955-1.923,3.1a5.557,5.557,0,0,0-.223,1.887,52.068,52.068,0,0,1-.684,5.347,10.843,10.843,0,0,0,.383,5.324,26.489,26.489,0,0,1,1.29,2.931,10.2,10.2,0,0,0,.52,2.078c.706,1.367,2.507,1.723,4.052,1.892a6.076,6.076,0,0,0,1.7.027,5.925,5.925,0,0,0,2.033-.889A69.708,69.708,0,0,0,717.97,541a19.094,19.094,0,0,0,5.351-5.766,4.487,4.487,0,0,0,.615-3.049,2.338,2.338,0,0,1-.16-1.222c.287-.912,1.878-.816,2.224-1.723a4.317,4.317,0,0,1-1.623-2.074l-3.332-6.76c-.729.661-1.641,1.208-2.366,1.869a.629.629,0,0,1-.342.191c-.406.027-.488-.661-.88-.766a.665.665,0,0,0-.415.068c-1.791.779-2.507,3.013-4.166,4.043-.966.6-2.279.848-2.735,1.887-.119.269-.164.574-.305.834a.706.706,0,0,1-.707.456,12.707,12.707,0,0,0,.369-5.4C707.55,523.751,705.741,523.965,703.808,524.143Z" transform="translate(2053.524 4766.723)"/><path class="i" d="M795.895,639.685c.123-.046.246-.1.369-.132a1.513,1.513,0,0,0,.41-1.641c-.16-.428-1.044-.456-1.413-.561q-2.088-.5-4.18-.939a4.528,4.528,0,0,0-3.008.068c-.337.178-.615.77-.843,1.071l.351.3c.378.314.766.624,1.167.912a.287.287,0,0,1,.3-.1.273.273,0,0,1,.132.146.91.91,0,0,1,.1.287A7.867,7.867,0,0,0,795.895,639.685Z" transform="translate(2006.503 4703.717)"/><path class="d" d="M1022.666,457.013v38.944c0,1.158-2.17,2.1-4.854,2.1h-102.8c-2.685,0-4.859-.944-4.859-2.1V457.013c0-1.162,2.174-2.343,4.859-2.343h102.807C1020.5,454.67,1022.666,455.851,1022.666,457.013Z" transform="translate(1947.359 4817.996)"/><rect class="a" width="53.548" height="1.892" transform="translate(2906.891 5286.586)"/><rect class="m" width="53.548" height="1.892" transform="translate(2906.891 5291.19)"/><rect class="m" width="53.548" height="1.892" transform="translate(2906.891 5295.798)"/><rect class="m" width="53.548" height="1.892" transform="translate(2906.891 5300.406)"/><path class="n" d="M943.883,476.09a12.694,12.694,0,0,0-7,23.292V497.23a2.89,2.89,0,0,1,2.539-2.858,5.014,5.014,0,0,0,8.834,0,2.894,2.894,0,0,1,2.543,2.858v2.206a12.7,12.7,0,0,0-6.919-23.346Zm5.584,15.5a.785.785,0,0,1-.169.219.729.729,0,0,1-.369.123,2.406,2.406,0,0,1-.255,0,5.037,5.037,0,0,1-9.868-1.431,4.972,4.972,0,0,1,.656-2.48.585.585,0,0,1-.055-.036,1.682,1.682,0,0,1,.164-2.329,3.454,3.454,0,0,1,1.044-.383,4.608,4.608,0,0,0,2.644-2.019,4.3,4.3,0,0,1-.027.766,1.117,1.117,0,0,1,1.6-.055,3.038,3.038,0,0,0,.456.51,1.267,1.267,0,0,0,.565.16l1.263.164a1.823,1.823,0,0,1,1.919,1.367,12.633,12.633,0,0,1,.83,2.676,4.28,4.28,0,0,1-.392,2.753Z" transform="translate(1935.915 4806.339)"/><path class="d" d="M1022.666,217.333v38.949c0,1.158-2.17,2.1-4.854,2.1h-102.8c-2.685,0-4.859-.944-4.859-2.1V217.333c0-1.158,2.174-2.343,4.859-2.343h102.807C1020.5,214.995,1022.666,216.175,1022.666,217.333Z" transform="translate(1947.359 4948.428)"/><rect class="a" width="53.548" height="1.892" transform="translate(2906.891 5177.339)"/><rect class="m" width="53.548" height="1.892" transform="translate(2906.891 5181.947)"/><rect class="m" width="53.548" height="1.892" transform="translate(2906.891 5186.555)"/><rect class="m" width="53.548" height="1.892" transform="translate(2906.891 5191.159)"/><path class="n" d="M943.883,236.42a12.694,12.694,0,0,0-7,23.292V257.56a2.885,2.885,0,0,1,2.539-2.858,5.014,5.014,0,0,0,8.834,0,2.89,2.89,0,0,1,2.543,2.858v2.2a12.694,12.694,0,0,0-6.919-23.342Zm5.584,15.5a.669.669,0,0,1-.169.219.688.688,0,0,1-.369.123,2.386,2.386,0,0,1-.255,0,5.037,5.037,0,0,1-9.868-1.427,4.96,4.96,0,0,1,.656-2.48l-.055-.036a1.682,1.682,0,0,1,.164-2.329,3.34,3.34,0,0,1,1.044-.383,4.613,4.613,0,0,0,2.644-2.024,4.344,4.344,0,0,1-.027.77,1.121,1.121,0,0,1,1.6-.059,2.873,2.873,0,0,0,.456.51,1.331,1.331,0,0,0,.565.164l1.263.16a2.443,2.443,0,0,1,1.44.52,2.381,2.381,0,0,1,.479.852,12.761,12.761,0,0,1,.83,2.68,4.266,4.266,0,0,1-.392,2.739Z" transform="translate(1935.915 4936.766)"/><path class="d" d="M910.644,336.673v38.949c0,1.158-2.174,2.1-4.859,2.1H802.964c-2.68,0-4.854-.939-4.854-2.1V336.673c0-1.162,2.174-2.343,4.854-2.343H905.771C908.456,334.33,910.644,335.511,910.644,336.673Z" transform="translate(2008.331 4883.484)"/><rect class="a" width="53.548" height="1.892" transform="translate(2855.818 5231.734)"/><path class="n" d="M831.841,355.75a12.7,12.7,0,0,0-7,23.292V378.2a2.885,2.885,0,0,1,2.539-2.858,5.041,5.041,0,0,0,8.838,0,2.885,2.885,0,0,1,2.539,2.858v.912a12.694,12.694,0,0,0-6.915-23.36Zm4.977,16.1a5.014,5.014,0,1,1-10.028,0,5.52,5.52,0,0,1,2.89-7.38,1.677,1.677,0,0,1,1.413-2.589h.118a1.673,1.673,0,0,0-1.336,2.5h.05a1.612,1.612,0,0,1-.032-.333,1.641,1.641,0,0,1,.315-.975,1.673,1.673,0,0,1,1.6-1.185h.119a1.668,1.668,0,0,0-1.281.747,1.677,1.677,0,0,1,2.6,1.4,1.248,1.248,0,0,1,0,.187,5.52,5.52,0,0,1,3.592,7.621Z" transform="translate(1996.885 4871.828)"/><rect class="m" width="53.548" height="1.892" transform="translate(2855.818 5236.342)"/><rect class="m" width="53.548" height="1.892" transform="translate(2855.818 5240.946)"/><rect class="m" width="53.548" height="1.892" transform="translate(2855.818 5245.554)"/></g><g transform="translate(77.619 139.644)"><path class="b" d="M863.452,574.935c-.1.184-.2.363-.31.533a8.461,8.461,0,1,1-11.922-11.5,7.769,7.769,0,0,1,1.019-.592,8.458,8.458,0,0,1,11.51,10.932C863.661,574.522,863.561,574.729,863.452,574.935Z" transform="translate(-619.648 -400.83)"/><path class="k" d="M875.344,588.043c-.1.184-.2.363-.31.533l-10.476-7.284,11.083,6.128C875.553,587.63,875.453,587.837,875.344,588.043Z" transform="translate(-631.541 -413.937)"/><path class="k" d="M858.841,598.2l-11.013-4.247a8.466,8.466,0,0,1-.231-1.474Z" transform="translate(-619.705 -421.741)"/><path class="k" d="M868.793,569.466l-9.019-3.48a7.788,7.788,0,0,1,1.019-.592Z" transform="translate(-628.203 -402.844)"/></g><g transform="translate(97.619 297.644)"><path class="b" d="M863.452,574.935c-.1.184-.2.363-.31.533a8.461,8.461,0,1,1-11.922-11.5,7.769,7.769,0,0,1,1.019-.592,8.458,8.458,0,0,1,11.51,10.932C863.661,574.522,863.561,574.729,863.452,574.935Z" transform="translate(-619.648 -400.83)"/><path class="k" d="M875.344,588.043c-.1.184-.2.363-.31.533l-10.476-7.284,11.083,6.128C875.553,587.63,875.453,587.837,875.344,588.043Z" transform="translate(-631.541 -413.937)"/><path class="k" d="M858.841,598.2l-11.013-4.247a8.466,8.466,0,0,1-.231-1.474Z" transform="translate(-619.705 -421.741)"/><path class="k" d="M868.793,569.466l-9.019-3.48a7.788,7.788,0,0,1,1.019-.592Z" transform="translate(-628.203 -402.844)"/></g><g transform="translate(-175.381 186.644)"><path class="b" d="M863.452,574.935c-.1.184-.2.363-.31.533a8.461,8.461,0,1,1-11.922-11.5,7.769,7.769,0,0,1,1.019-.592,8.458,8.458,0,0,1,11.51,10.932C863.661,574.522,863.561,574.729,863.452,574.935Z" transform="translate(-619.648 -400.83)"/><path class="k" d="M875.344,588.043c-.1.184-.2.363-.31.533l-10.476-7.284,11.083,6.128C875.553,587.63,875.453,587.837,875.344,588.043Z" transform="translate(-631.541 -413.937)"/><path class="k" d="M858.841,598.2l-11.013-4.247a8.466,8.466,0,0,1-.231-1.474Z" transform="translate(-619.705 -421.741)"/><path class="k" d="M868.793,569.466l-9.019-3.48a7.788,7.788,0,0,1,1.019-.592Z" transform="translate(-628.203 -402.844)"/></g></g></svg>