<svg xmlns="http://www.w3.org/2000/svg" width="306.136" height="255.356" viewBox="0 0 306.136 255.356"><defs><style>.a{fill:#601ed9;}.b{fill:#fff;}.c{fill:#9258fe;}.d{fill:#a0616a;}.e{fill:#270c59;}.f{fill:#b48bff;}.g{opacity:0.15;}.h{fill:#2f2e41;}.i{fill:#31d0e9;}.j{fill:#d0cde1;}</style></defs><g transform="translate(0 0)"><path class="a" d="M658.012,109.19a52.019,52.019,0,0,1-6.884,26.871,53.693,53.693,0,0,1-4.893,7.026c-16.053,19.634-45.9,30.38-72.872,47.787-79.623,51.38-88.248-30.951-84.652-81.684A90.521,90.521,0,0,1,510.8,55.61a84.081,84.081,0,0,1,8.6-8.453A82.349,82.349,0,0,1,573.363,27.5c36.049,0,66.834,21.743,79.04,52.383a79.133,79.133,0,0,1,5.609,29.3Z" transform="translate(-368.809 -27.503)"/><path class="b" d="M643.943,88.423l-80.6,9.7a84.075,84.075,0,0,1,8.6-8.453Z" transform="translate(-421.353 -70.013)"/><path class="b" d="M856.983,383.781a53.7,53.7,0,0,1-4.893,7.026l-69.04-8.3Z" transform="translate(-574.664 -275.222)"/><path class="b" d="M771.058,193.679,654.05,178.5l114.192,6.751A78.7,78.7,0,0,1,771.058,193.679Z" transform="translate(-484.648 -132.871)"/><path class="c" d="M477.442,79.965c0,.209-.006.414-.024.616a8.461,8.461,0,1,1-15.92-4.566,7.782,7.782,0,0,1,.623-1,8.458,8.458,0,0,1,15.291,4.261C477.433,79.5,477.442,79.733,477.442,79.965Z" transform="translate(-349.602 -58.206)"/><path class="b" d="M487.211,97.411c0,.209-.006.414-.024.616L474.519,96.5l12.662.218C487.2,96.949,487.211,97.179,487.211,97.411Z" transform="translate(-359.371 -75.652)"/><path class="b" d="M477.393,113.615l-11.719,1.411a8.476,8.476,0,0,1-.894-1.194Z" transform="translate(-352.575 -87.592)"/><path class="b" d="M473.357,82.615l-9.6,1.154a7.77,7.77,0,0,1,.623-1Z" transform="translate(-351.863 -65.96)"/><path class="c" d="M863.452,574.935c-.1.184-.2.363-.31.533a8.461,8.461,0,1,1-11.922-11.5,7.769,7.769,0,0,1,1.019-.592,8.458,8.458,0,0,1,11.51,10.932C863.661,574.522,863.561,574.729,863.452,574.935Z" transform="translate(-619.648 -400.83)"/><path class="b" d="M875.344,588.043c-.1.184-.2.363-.31.533l-10.476-7.284,11.083,6.128C875.553,587.63,875.453,587.837,875.344,588.043Z" transform="translate(-631.541 -413.937)"/><path class="b" d="M858.841,598.2l-11.013-4.247a8.466,8.466,0,0,1-.231-1.474Z" transform="translate(-619.705 -421.741)"/><path class="b" d="M868.793,569.466l-9.019-3.48a7.788,7.788,0,0,1,1.019-.592Z" transform="translate(-628.203 -402.844)"/><path class="c" d="M1065.037,115.059c.146.149.285.3.413.458a8.461,8.461,0,1,1-14.585,7.846,7.789,7.789,0,0,1-.253-1.151,8.458,8.458,0,0,1,13.922-7.626C1064.707,114.734,1064.877,114.892,1065.037,115.059Z" transform="translate(-761.305 -86.817)"/><path class="b" d="M1076.117,119.865c.145.149.285.3.413.458l-10.133,7.755,9.217-8.685C1075.787,119.54,1075.957,119.7,1076.117,119.865Z" transform="translate(-772.385 -91.623)"/><path class="b" d="M1080.759,138.039l-7.4,9.193a8.476,8.476,0,0,1-1.474-.23Z" transform="translate(-776.211 -104.635)"/><path class="b" d="M1057.152,123.526l-6.065,7.528a7.759,7.759,0,0,1-.253-1.151Z" transform="translate(-761.524 -94.508)"/><path class="d" d="M567.906,636.956s18.569.774,18.569,5.416-20.89,0-20.89,0Z" transform="translate(-422.917 -452.78)"/><path class="e" d="M300.657,645.235l-34.816-2.321-1.548-18.569-7.737,16.248-34.043-4.642c.774-29.4,13.153-58.027,13.927-61.9s2.623-19.853,2.623-19.853c3.381-7.172,21.1-7.845,34.987-7.2,5.756.263,10.863.758,14.012,1.114,2.081.232,3.311.4,3.311.4,5.547,5.718,9.122,13.509,11.319,22.213C310.615,602.094,300.657,645.235,300.657,645.235Z" transform="translate(-183.522 -389.878)"/><circle class="d" cx="19.342" cy="19.342" r="19.342" transform="translate(59.108 37.173)"/><path class="d" d="M274.763,229.879s-5.416,23.985-13.927,30.948,33.269,0,33.269,0-9.284-15.474-2.321-22.437S274.763,229.879,274.763,229.879Z" transform="translate(-209.465 -168.721)"/><path class="f" d="M288.038,380.722,275.2,382.145,239.3,386.137s-.17-.457-.472-1.284c-2.607-7.11-15.164-41.71-16.549-52.1-1.547-11.605,14.7-25.532,14.7-25.532s15.474-3.095,20.116-3.095,23.211,6.963,23.211,6.963l6.925,62.29.6,5.393Z" transform="translate(-183.282 -220.53)"/><path class="g" d="M391.873,476.443l-26.02-15.25s-.457-1.486-1.23-3.992c-.387-1.253-.859-2.77-1.393-4.487-3-9.64-8.039-25.548-12.077-37.168-6.19-17.8,23.985,31.722,23.985,31.722l1.509,1.168.6,5.393c2.081.232,3.311.4,3.311.4C386.1,459.948,389.676,467.739,391.873,476.443Z" transform="translate(-272.702 -295.586)"/><path class="f" d="M364.452,327s-7.737,10.058-1.547,27.853S377.6,400.5,377.6,400.5l44.874,26.306,6.19-7.737-41.779-32.5s-1.547-58.8-9.284-61.122A15.856,15.856,0,0,0,364.452,327Z" transform="translate(-279.812 -234.897)"/><path class="d" d="M246.836,543.8s10.832,22.437,15.474,20.116S250.7,538.387,250.7,538.387Z" transform="translate(-200.494 -383.998)"/><path class="f" d="M138.667,352.77,97.661,386.813s-15.474,10.832,13.153,18.569,30.948,12.379,30.948,12.379,3.095-10.058,6.963-8.511L115.456,393l27.079-16.248Z" transform="translate(-93.485 -254.474)"/><path class="h" d="M167.026,160.633a109.239,109.239,0,0,0,10.953-5.808c-.284-8.431.754-16.084,3.793-20.141,1.706-3.873,5.288-7.751,8.093-10.8,6.89-7.5,22.124-11.685,24.826-7.938,20.436.4,22.588,16.422,22.588,16.422-.106,6.7-7.07,6.912-13.17,6.668.546,4.574-.91,9.327-5.125,11.435-8.062,4.031-10.48,9.271-6.449,12.9s11.286,13.3,1.612,15.72-10.883,7.255-8.061,9.271-6.449-3.628-6.449-3.628-1.612,9.674-10.077,7.255a5.091,5.091,0,0,1-2.262-1.6c-2.286,2.512-4.326,4-5.863,4.005-8.8.047-7.747-9.7-7.747-9.7s-10.449,2.934-7.188,1.755,3.4-6.164-5.263-11.1S162.166,163.039,167.026,160.633Z" transform="translate(-138.325 -88.241)"/><path class="i" d="M545.112,260.32l-.14-.018.342,1.3a34.2,34.2,0,0,0,1.405,5.342l10.041,38.17a6.47,6.47,0,0,0,5.268,4.748L582.5,313.03a6.47,6.47,0,0,0,6.693-3.34l19.46-36.347a34.125,34.125,0,0,0,1.665-3.109l.661-1.234-.1-.014a34.4,34.4,0,1,0-65.767-8.666Z" transform="translate(-408.402 -162.654)"/><path class="j" d="M579.639,310.049a7.034,7.034,0,0,1-1.077-.083l-21.4-3.312a7.063,7.063,0,0,1-5.752-5.184l-10.5-39.9a35.988,35.988,0,0,1-1.474-5.608l-.265-1.745a36.272,36.272,0,0,1,41.52-40.453l-.093.6a35.68,35.68,0,0,0-40.776,40.166l.2,1.306a35.753,35.753,0,0,0,1.462,5.56l10.5,39.921a6.458,6.458,0,0,0,5.26,4.741l21.4,3.311a6.469,6.469,0,0,0,6.683-3.335l.533.285A7.078,7.078,0,0,1,579.639,310.049Z" transform="translate(-404.28 -157.18)"/><rect class="a" width="37.87" height="0.782" transform="translate(167.765 141.902) rotate(-69.885)"/><rect class="a" width="0.782" height="37.87" transform="translate(158.744 103.084) rotate(-2.516)"/><path class="e" d="M602.915,579.827l-27.427-4.243a.782.782,0,0,1,.239-1.545l27.427,4.243a.782.782,0,0,1-.239,1.545Z" transform="translate(-429.365 -408.87)"/><path class="e" d="M605.242,560.553l-27.427-4.243a.782.782,0,0,1,.239-1.545l27.427,4.243a.782.782,0,0,1-.239,1.545Z" transform="translate(-430.989 -395.42)"/><path class="e" d="M607.569,541.281l-27.427-4.243a.782.782,0,1,1,.239-1.545l27.427,4.243a.782.782,0,0,1-.239,1.545Z" transform="translate(-432.613 -381.972)"/><path class="e" d="M599.119,585.273c5.44.842,10.32-1.508,10.9-5.248l-19.7-3.048C589.737,580.717,593.678,584.431,599.119,585.273Z" transform="translate(-440.135 -410.926)"/><path class="a" d="M625.927,342.377a4.816,4.816,0,0,1-2.669-1.726c-.174-.2-.344-.414-.513-.625a6.1,6.1,0,0,0-2.015-1.875c-1.794-.837-3.908.332-5.738,1.586l-.442-.645c2.012-1.38,4.359-2.654,6.511-1.65a6.775,6.775,0,0,1,2.293,2.094c.165.205.329.41.5.607.552.644,1.653,1.689,2.832,1.448a3.808,3.808,0,0,0,1.359-.719,7.28,7.28,0,0,1,.961-.607,3.828,3.828,0,0,1,4.2.594,7.545,7.545,0,0,1,.57.6,1.946,1.946,0,0,0,3.146.37,4.043,4.043,0,0,1,2.366-.709l.084.011c1.54.238,2.25,1.941,2.651,3.212l-.746.235c-.546-1.728-1.21-2.587-2.082-2.682a3.436,3.436,0,0,0-1.9.62,2.668,2.668,0,0,1-4.1-.542,6.909,6.909,0,0,0-.51-.542,3.072,3.072,0,0,0-3.328-.47,6.6,6.6,0,0,0-.857.544,4.442,4.442,0,0,1-1.653.847A2.57,2.57,0,0,1,625.927,342.377Z" transform="translate(-457.085 -243.527)"/></g></svg>