<svg xmlns="http://www.w3.org/2000/svg" width="241.359" height="124.896" viewBox="0 0 241.359 124.896"><defs><style>.a{fill:#5e1ed8;}</style></defs><g transform="translate(-6578.074 -2528.139)"><path class="a" d="M6578.074,2763.153c0-12.614,8.89-21.022,21.263-21.022,9.851,0,17.339,5.2,19.461,14.415l-9.25,1.121c-1.482-5.045-5.285-7.568-10.291-7.568-6.567,0-11.212,5.206-11.212,13.054,0,7.889,4.645,13.054,11.212,13.054,5.006,0,8.809-2.522,10.291-7.568l9.25,1.121c-2.122,9.25-9.811,14.5-19.461,14.5C6586.964,2784.256,6578.074,2775.807,6578.074,2763.153Z" transform="translate(0 -131.261)"/><path class="a" d="M6705.068,2690.032h10.051v61.506h-10.051Z" transform="translate(-77.897 -99.304)"/><path class="a" d="M6753.962,2763.153c0-13.094,9.05-21.022,21.623-21.022,12.613,0,21.663,7.928,21.663,21.022,0,13.214-9.089,21.142-21.663,21.142C6763.131,2784.3,6753.962,2776.367,6753.962,2763.153Zm33.4,0c0-7.849-4.965-13.054-11.853-13.054-6.727,0-11.612,5.206-11.612,13.054,0,7.928,4.885,13.094,11.612,13.094C6782.392,2776.248,6787.357,2771.082,6787.357,2763.153Z" transform="translate(-107.888 -131.261)"/><path class="a" d="M6884.8,2753.127v-20.7h-8.088V2724.7c8.168,0,10.211-2,10.211-12.293h7.968V2724.7h8.689v7.728h-8.689v19.621c0,3.763,1.962,5.526,5.005,5.526h3.684v7.688h-6.928C6889.2,2765.26,6884.8,2760.856,6884.8,2753.127Z" transform="translate(-183.18 -113.027)"/><path class="a" d="M6964.559,2753.127v-20.7h-8.088V2724.7c8.168,0,10.21-2,10.21-12.293h7.969V2724.7h8.689v7.728h-8.689v19.621c0,3.763,1.962,5.526,5.006,5.526h3.684v7.688h-6.927C6968.964,2765.26,6964.559,2760.856,6964.559,2753.127Z" transform="translate(-232.105 -113.027)"/><path class="a" d="M7045.864,2700.66a5.986,5.986,0,1,1,6.046,5.967A6,6,0,0,1,7045.864,2700.66Zm.96,13.174h10.011V2754.4h-10.011Z" transform="translate(-286.938 -102.163)"/><path class="a" d="M7137.854,2764.971h-30.593c.4,7.568,5.366,11.252,11.292,11.252a10.068,10.068,0,0,0,9.609-6.046l9.131,1.481c-2.764,7.928-9.892,12.573-18.66,12.573-12.693,0-21.183-7.768-21.183-21.062,0-13.334,8.729-21.143,20.862-21.143,11.292,0,19.62,6.487,19.7,20.462Zm-30.033-7.728h20.1c-.882-5.326-4.605-8.009-9.571-8.009C7113.066,2749.234,7109.183,2751.757,7107.82,2757.243Z" transform="translate(-318.58 -131.196)"/><g transform="translate(6636.608 2528.139)"><path class="a" d="M6903.223,2642.155c5.657,7.049,13.98,13.53,28.2,13.53,14.99,0,24.249-7.084,28.464-19.176l-13.926-2.26c-2.688,5.923-9.609,9.22-16.265,9.22-7.531,0-16.169-4.373-18.485-12.344A47.578,47.578,0,0,1,6903.223,2642.155Z" transform="translate(-6836.052 -2591.31)"/><path class="a" d="M6811.169,2551.408l26.966-.007c-1.344-8.145-6.509-11.8-14.612-11.8s-12.792,4.437-15.864,13.483c-3.058,9.341-6.57,16.275-13.71,24.385-7.058,8.021-16.411,15.064-31.966,15.064-18.914,0-32.5-12.917-32.5-32.258,0-19.28,13.589-32.134,32.5-32.134,15.058,0,26.5,7.956,29.747,22.036l-14.136,1.714a0,0,0,0,1,0,0c-2.266-7.711-8.08-11.566-15.731-11.566-10.039,0-17.138,7.956-17.138,19.954,0,12.059,7.1,19.516,17.138,19.516,21.552,0,32.131-28.967,32.131-28.967,6.3-15.661,15.07-22.683,29.458-22.683,17.262,0,29.744,9.918,29.868,31.283v3.784c0,.006,0,.009-.008.009h-46.4A97.182,97.182,0,0,0,6811.169,2551.408Z" transform="translate(-6729.479 -2528.139)"/><path class="a" d="M6896.233,2645.8" transform="translate(-6831.765 -2600.309)"/></g></g></svg>